<svg width="95" height="16" viewBox="0 0 95 16" fill="none" xmlns="http://www.w3.org/2000/svg">
<path d="M93.6251 8.35366C93.8203 8.15836 93.8202 7.84178 93.6249 7.64656L90.4423 4.46522C90.247 4.27 89.9304 4.27006 89.7352 4.46537C89.5399 4.66067 89.54 4.97725 89.7353 5.17247L92.5644 8.00033L89.7366 10.8293C89.5413 11.0246 89.5414 11.3412 89.7367 11.5364C89.932 11.7317 90.2486 11.7316 90.4438 11.5363L93.6251 8.35366ZM0.278919 8.51904L3.18494 8.51845L3.18472 7.51845L0.278698 7.51904L0.278919 8.51904ZM8.99698 8.51727L14.809 8.5161L14.8088 7.5161L8.99676 7.51727L8.99698 8.51727ZM20.6211 8.51492L26.4331 8.51374L26.4329 7.51374L20.6208 7.51492L20.6211 8.51492ZM32.2451 8.51256L38.0572 8.51138L38.057 7.51138L32.2449 7.51256L32.2451 8.51256ZM43.8692 8.5102L49.6813 8.50902L49.6811 7.50902L43.869 7.5102L43.8692 8.5102ZM55.4933 8.50784L61.3054 8.50667L61.3051 7.50667L55.4931 7.50784L55.4933 8.50784ZM67.1174 8.50549L72.9294 8.50431L72.9292 7.50431L67.1172 7.50549L67.1174 8.50549ZM78.7415 8.50313L84.5535 8.50195L84.5533 7.50195L78.7413 7.50313L78.7415 8.50313ZM90.3656 8.50077L93.2716 8.50018L93.2714 7.50018L90.3653 7.50077L90.3656 8.50077ZM93.9787 8.70715C94.3692 8.31654 94.369 7.68338 93.9784 7.29293L87.6131 0.930262C87.2224 0.539817 86.5893 0.539945 86.1988 0.930549C85.8084 1.32115 85.8085 1.95432 86.1992 2.34476L91.8573 8.00047L86.2017 13.6585C85.8112 14.0491 85.8114 14.6822 86.202 15.0727C86.5926 15.4631 87.2257 15.463 87.6162 15.0724L93.9787 8.70715ZM0.27903 9.01904L3.18505 9.01845L3.18461 7.01845L0.278587 7.01904L0.27903 9.01904ZM8.99709 9.01727L14.8091 9.0161L14.8087 7.0161L8.99665 7.01727L8.99709 9.01727ZM20.6212 9.01492L26.4332 9.01374L26.4328 7.01374L20.6207 7.01492L20.6212 9.01492ZM32.2453 9.01256L38.0573 9.01138L38.0569 7.01138L32.2448 7.01256L32.2453 9.01256ZM43.8693 9.0102L49.6814 9.00902L49.6809 7.00902L43.8689 7.0102L43.8693 9.0102ZM55.4934 9.00784L61.3055 9.00667L61.305 7.00667L55.493 7.00784L55.4934 9.00784ZM67.1175 9.00549L72.9295 9.00431L72.9291 7.00431L67.1171 7.00549L67.1175 9.00549ZM78.7416 9.00313L84.5536 9.00195L84.5532 7.00195L78.7411 7.00313L78.7416 9.00313ZM90.3657 9.00077L93.2717 9.00018L93.2712 7.00018L90.3652 7.00077L90.3657 9.00077Z" fill="url(#paint0_linear_988_1265)"/>
<defs>
<linearGradient id="paint0_linear_988_1265" x1="0.278809" y1="8.01904" x2="93.1941" y2="17.2911" gradientUnits="userSpaceOnUse">
<stop offset="0.015625" stop-color="#1CB9E5"/>
<stop offset="0.473958" stop-color="#9982E8"/>
<stop offset="1" stop-color="#F0505E"/>
</linearGradient>
</defs>
</svg>
