<svg width="95" height="16" viewBox="0 0 95 16" fill="none" xmlns="http://www.w3.org/2000/svg">
<path d="M1.3998 7.66497C1.20457 7.86026 1.20463 8.17685 1.39993 8.37208L4.58249 11.5535C4.77778 11.7488 5.09437 11.7487 5.2896 11.5534C5.48482 11.3581 5.48476 11.0415 5.28947 10.8463L2.46052 8.01835L5.28844 5.18945C5.48366 4.99415 5.4836 4.67757 5.28831 4.48234C5.09301 4.28711 4.77642 4.28716 4.5812 4.48246L1.3998 7.66497ZM94.746 7.50293L91.84 7.50342L91.8402 8.50342L94.7462 8.50293L94.746 7.50293ZM86.0279 7.50439L80.2159 7.50536L80.2161 8.50536L86.0281 8.50439L86.0279 7.50439ZM74.4039 7.50633L68.5918 7.5073L68.592 8.5073L74.404 8.50633L74.4039 7.50633ZM62.7798 7.50827L56.9677 7.50924L56.9679 8.50924L62.78 8.50827L62.7798 7.50827ZM51.1557 7.51021L45.3436 7.51118L45.3438 8.51118L51.1559 8.51021L51.1557 7.51021ZM39.5316 7.51215L33.7196 7.51312L33.7197 8.51312L39.5318 8.51215L39.5316 7.51215ZM27.9075 7.51409L22.0955 7.51507L22.0957 8.51507L27.9077 8.51409L27.9075 7.51409ZM16.2834 7.51604L10.4714 7.51701L10.4716 8.51701L16.2836 8.51604L16.2834 7.51604ZM4.65934 7.51798L1.75332 7.51846L1.75351 8.51846L4.65953 8.51798L4.65934 7.51798ZM1.04618 7.31147C0.655723 7.70206 0.655839 8.33523 1.04644 8.72569L7.41156 15.0886C7.80215 15.479 8.43532 15.4789 8.82577 15.0884C9.21623 14.6978 9.21611 14.0646 8.82551 13.6741L3.16763 8.01823L8.82345 2.36043C9.21391 1.96984 9.21379 1.33667 8.82319 0.946213C8.4326 0.555754 7.79943 0.55586 7.40898 0.94645L1.04618 7.31147ZM94.7459 7.00293L91.8399 7.00341L91.8403 9.00342L94.7463 9.00293L94.7459 7.00293ZM86.0278 7.00439L80.2158 7.00536L80.2162 9.00536L86.0282 9.00439L86.0278 7.00439ZM74.4038 7.00633L68.5917 7.0073L68.5921 9.0073L74.4041 9.00633L74.4038 7.00633ZM62.7797 7.00827L56.9676 7.00924L56.968 9.00924L62.78 9.00827L62.7797 7.00827ZM51.1556 7.01021L45.3436 7.01118L45.3439 9.01118L51.156 9.01021L51.1556 7.01021ZM39.5315 7.01215L33.7195 7.01312L33.7198 9.01312L39.5319 9.01215L39.5315 7.01215ZM27.9074 7.01409L22.0954 7.01507L22.0957 9.01507L27.9078 9.01409L27.9074 7.01409ZM16.2833 7.01604L10.4713 7.01701L10.4717 9.01701L16.2837 9.01604L16.2833 7.01604ZM4.65925 7.01798L1.75323 7.01846L1.7536 9.01846L4.65962 9.01798L4.65925 7.01798Z" fill="url(#paint0_linear_988_1266)"/>
<defs>
<linearGradient id="paint0_linear_988_1266" x1="94.7461" y1="8.00293" x2="1.83122" y2="-1.27276" gradientUnits="userSpaceOnUse">
<stop offset="0.015625" stop-color="#1CB9E5"/>
<stop offset="0.473958" stop-color="#9982E8"/>
<stop offset="1" stop-color="#F0505E"/>
</linearGradient>
</defs>
</svg>
