<svg width="91" height="106" viewBox="0 0 91 106" fill="none" xmlns="http://www.w3.org/2000/svg">
<path d="M78.4162 50.4999L78.9113 50.3849L78.8976 50.3323L78.8722 50.2838L78.4162 50.4999ZM81.5509 62.4999L82.0594 62.4616L82.0559 62.4228L82.046 62.3849L81.5509 62.4999ZM82.5958 73.9999L83.1061 73.9961L83.1058 73.9788L83.1042 73.9616L82.5958 73.9999ZM82.763 104.849C82.9656 105.038 83.2887 105.036 83.4847 104.843L86.6792 101.705C86.8752 101.512 86.8699 101.203 86.6673 101.013C86.4648 100.823 86.1416 100.826 85.9456 101.018L83.1061 103.808L80.1718 101.061C79.9692 100.871 79.6461 100.874 79.4501 101.066C79.254 101.259 79.2593 101.569 79.4619 101.758L82.763 104.849ZM40.2789 12.9999L40.5384 12.5807L40.5167 12.5682L40.4938 12.5578L40.2789 12.9999ZM48.1154 17.4999L48.419 17.1091L48.3977 17.0938L48.3748 17.0806L48.1154 17.4999ZM54.3845 21.9999L54.7273 21.6402L54.7085 21.6237L54.6881 21.6091L54.3845 21.9999ZM10.5005 2.49991L10.6262 2.02666L10.6021 2.02059L10.5775 2.01679L10.5005 2.49991ZM20.4267 4.99991L20.5992 4.54078L20.5761 4.53265L20.5523 4.52666L20.4267 4.99991ZM60.6537 27.4999L60.3109 27.8597L60.3168 27.8647L60.6537 27.4999ZM65.3556 31.4998L65.7355 31.1762L65.7152 31.1544L65.6925 31.135L65.3556 31.4998ZM30.3528 8.4999L30.5677 8.05783L30.5469 8.04839L30.5253 8.04078L30.3528 8.4999ZM69.5351 35.9999L69.9537 35.7233L69.9358 35.6987L69.915 35.6762L69.5351 35.9999ZM74.2369 42.4999L74.6929 42.2838L74.6764 42.2523L74.6555 42.2234L74.2369 42.4999ZM0.497258 1.44912L2.97884 1.8326L3.13272 0.866358L0.651144 0.482882L0.497258 1.44912ZM7.94199 2.59955L10.4236 2.98302L10.5775 2.01679L8.09588 1.63331L7.94199 2.59955ZM10.3749 2.97315L12.8564 3.59815L13.1077 2.65166L10.6262 2.02666L10.3749 2.97315ZM17.8195 4.84815L20.301 5.47315L20.5523 4.52666L18.0708 3.90166L17.8195 4.84815ZM20.2542 5.45903L22.7357 6.33403L23.0807 5.41578L20.5992 4.54078L20.2542 5.45903ZM27.6988 8.08403L30.1803 8.95903L30.5253 8.04078L28.0438 7.16578L27.6988 8.08403ZM30.1379 8.94198L32.6194 10.067L33.0492 9.18283L30.5677 8.05783L30.1379 8.94198ZM37.5825 12.317L40.0641 13.442L40.4938 12.5578L38.0123 11.4328L37.5825 12.317ZM40.0195 13.4192L41.9786 14.5442L42.4975 13.7056L40.5384 12.5807L40.0195 13.4192ZM45.8968 16.7942L47.8559 17.9192L48.3748 17.0806L46.4157 15.9556L45.8968 16.7942ZM47.8118 17.8907L49.3791 19.0157L49.9863 18.2341L48.419 17.1091L47.8118 17.8907ZM52.5136 21.2657L54.0809 22.3907L54.6881 21.6091L53.1208 20.4841L52.5136 21.2657ZM54.0417 22.3596L55.609 23.7346L56.2946 23.0152L54.7273 21.6402L54.0417 22.3596ZM58.7436 26.4846L60.3109 27.8596L60.9964 27.1402L59.4292 25.7652L58.7436 26.4846ZM60.3168 27.8647L61.4923 28.8647L62.166 28.1351L60.9906 27.1351L60.3168 27.8647ZM63.8432 30.8647L65.0187 31.8647L65.6925 31.135L64.517 30.135L63.8432 30.8647ZM64.9757 31.8235L66.0206 32.9485L66.7803 32.3012L65.7355 31.1762L64.9757 31.8235ZM68.1103 35.1985L69.1552 36.3235L69.915 35.6762L68.8701 34.5512L68.1103 35.1985ZM69.1165 36.2764L70.292 37.9014L71.1291 37.3483L69.9537 35.7233L69.1165 36.2764ZM72.6429 41.1514L73.8183 42.7764L74.6555 42.2234L73.48 40.5984L72.6429 41.1514ZM73.7809 42.716L74.8258 44.716L75.7377 44.2838L74.6929 42.2838L73.7809 42.716ZM76.9154 48.716L77.9603 50.716L78.8722 50.2838L77.8274 48.2838L76.9154 48.716ZM77.9212 50.6149L78.7049 53.6149L79.695 53.3849L78.9113 50.3849L77.9212 50.6149ZM80.2722 59.6149L81.0559 62.6149L82.046 62.3849L81.2623 59.3849L80.2722 59.6149ZM81.0424 62.5381L81.3036 65.4131L82.3206 65.3366L82.0594 62.4616L81.0424 62.5381ZM81.8261 71.1632L82.0873 74.0381L83.1042 73.9616L82.843 71.0866L81.8261 71.1632ZM82.0854 74.0037L82.1289 76.5453L83.1496 76.5378L83.1061 73.9961L82.0854 74.0037ZM82.216 81.6287L82.303 86.712L83.3237 86.7044L83.2366 81.6211L82.216 81.6287ZM82.39 91.7953L82.4771 96.8787L83.4977 96.8711L83.4107 91.7878L82.39 91.7953ZM82.5641 101.962L82.6076 104.504L83.6283 104.496L83.5848 101.954L82.5641 101.962ZM78.4162 50.4999L79.4063 50.2699L79.3789 50.1647L79.3282 50.0677L78.4162 50.4999ZM81.5509 62.4999L82.5679 62.4234L82.5608 62.3456L82.541 62.2699L81.5509 62.4999ZM82.5958 73.9999L83.6164 73.9923L83.6159 73.9578L83.6127 73.9234L82.5958 73.9999ZM82.4081 105.197C82.8132 105.577 83.4595 105.572 83.8515 105.187L90.2404 98.91C90.6325 98.5248 90.6219 97.9051 90.2167 97.5259C89.8116 97.1466 89.1653 97.1514 88.7733 97.5366L83.0942 103.116L77.2256 97.6221C76.8205 97.2429 76.1742 97.2477 75.7822 97.6328C75.3901 98.018 75.4007 98.6377 75.8059 99.017L82.4081 105.197ZM40.2789 12.9999L40.7978 12.1614L40.7544 12.1365L40.7087 12.1158L40.2789 12.9999ZM48.1154 17.4999L48.7226 16.7182L48.68 16.6876L48.6343 16.6614L48.1154 17.4999ZM54.3845 21.9999L55.0701 21.2805L55.0325 21.2475L54.9917 21.2182L54.3845 21.9999ZM10.5005 2.49991L10.7518 1.55341L10.7036 1.54127L10.6544 1.53367L10.5005 2.49991ZM20.4267 4.99991L20.7717 4.08166L20.7255 4.06539L20.678 4.05342L20.4267 4.99991ZM60.6537 27.4999L59.9681 28.2194L59.974 28.2245L59.9799 28.2295L60.6537 27.4999ZM65.3556 31.4998L66.1153 30.8525L66.0749 30.8089L66.0294 30.7702L65.3556 31.4998ZM30.3528 8.4999L30.7826 7.61575L30.741 7.59688L30.6978 7.58166L30.3528 8.4999ZM69.5351 35.9999L70.3723 35.4468L70.3365 35.3974L70.2948 35.3525L69.5351 35.9999ZM74.2369 42.4999L75.1488 42.0676L75.1159 42.0047L75.0741 41.9468L74.2369 42.4999ZM0.420314 1.93224L2.90189 2.31572L3.20966 0.383238L0.728088 -0.000238318L0.420314 1.93224ZM7.86505 3.08267L10.3466 3.46614L10.6544 1.53367L8.17282 1.15019L7.86505 3.08267ZM10.2492 3.4464L12.7307 4.0714L13.2334 2.17842L10.7518 1.55341L10.2492 3.4464ZM17.6938 5.32139L20.1753 5.9464L20.678 4.05342L18.1964 3.42842L17.6938 5.32139ZM20.0817 5.91815L22.5632 6.79315L23.2532 4.95666L20.7717 4.08166L20.0817 5.91815ZM27.5263 8.54315L30.0078 9.41815L30.6978 7.58166L28.2163 6.70666L27.5263 8.54315ZM29.923 9.38406L32.4046 10.5091L33.2641 8.74075L30.7826 7.61575L29.923 9.38406ZM37.3676 12.7591L39.8492 13.8841L40.7087 12.1158L38.2272 10.9908L37.3676 12.7591ZM39.76 13.8384L41.7192 14.9634L42.7569 13.2864L40.7978 12.1614L39.76 13.8384ZM45.6374 17.2134L47.5965 18.3384L48.6343 16.6614L46.6752 15.5364L45.6374 17.2134ZM47.5082 18.2816L49.0754 19.4066L50.2899 17.8432L48.7226 16.7182L47.5082 18.2816ZM52.21 21.6566L53.7773 22.7816L54.9917 21.2182L53.4245 20.0932L52.21 21.6566ZM53.699 22.7194L55.2663 24.0944L56.6374 22.6555L55.0701 21.2805L53.699 22.7194ZM58.4008 26.8444L59.9681 28.2194L61.3392 26.7805L59.7719 25.4055L58.4008 26.8444ZM59.9799 28.2295L61.1554 29.2295L62.5029 27.7703L61.3274 26.7703L59.9799 28.2295ZM63.5063 31.2295L64.6818 32.2295L66.0294 30.7702L64.8539 29.7702L63.5063 31.2295ZM64.5959 32.1472L65.6407 33.2722L67.1602 31.9775L66.1153 30.8525L64.5959 32.1472ZM67.7305 35.5222L68.7753 36.6472L70.2948 35.3525L69.25 34.2275L67.7305 35.5222ZM68.6979 36.5529L69.8734 38.1779L71.5477 37.0718L70.3723 35.4468L68.6979 36.5529ZM72.2243 41.4279L73.3997 43.0529L75.0741 41.9468L73.8986 40.3218L72.2243 41.4279ZM73.325 42.9321L74.3698 44.9321L76.1937 44.0677L75.1488 42.0676L73.325 42.9321ZM76.4595 48.9321L77.5043 50.9321L79.3282 50.0677L78.2833 48.0677L76.4595 48.9321ZM77.4261 50.7299L78.2098 53.7299L80.19 53.2699L79.4063 50.2699L77.4261 50.7299ZM79.7771 59.7299L80.5608 62.7299L82.541 62.2699L81.7573 59.2699L79.7771 59.7299ZM80.5339 62.5764L80.7952 65.4514L82.8291 65.2984L82.5679 62.4234L80.5339 62.5764ZM81.3176 71.2014L81.5788 74.0764L83.6127 73.9234L83.3515 71.0484L81.3176 71.2014ZM81.5751 74.0074L81.6186 76.5491L83.66 76.534L83.6164 73.9923L81.5751 74.0074ZM81.7056 81.6325L81.7927 86.7158L83.834 86.7007L83.747 81.6173L81.7056 81.6325ZM81.8797 91.7991L81.9667 96.8825L84.0081 96.8673L83.921 91.784L81.8797 91.7991ZM82.0538 101.966L82.0973 104.507L84.1386 104.492L84.0951 101.951L82.0538 101.966Z" fill="url(#paint0_linear_988_1268)"/>
<defs>
<linearGradient id="paint0_linear_988_1268" x1="0.5738" y1="0.966476" x2="64.6091" y2="110.133" gradientUnits="userSpaceOnUse">
<stop offset="0.015625" stop-color="#1CB9E5"/>
<stop offset="0.473958" stop-color="#9982E8"/>
<stop offset="1" stop-color="#F0505E"/>
</linearGradient>
</defs>
</svg>
