<svg width="277" height="469" viewBox="0 0 277 469" fill="none" xmlns="http://www.w3.org/2000/svg">
<path d="M108.526 72.4811C108.906 75.7113 106.02 89.4197 104.805 93.4376C103.666 97.298 101.919 100.371 99.4128 103.443C96.9827 106.358 95.3879 108.879 92.8059 111.637C89.9961 114.552 88.2494 118.412 87.7937 122.43C87.6419 124.4 88.1735 126.527 87.1103 128.181C86.5027 129.127 85.8952 130.624 83.3891 130.624C79.2123 130.545 70.3271 131.411 65.6947 131.411C59.6193 131.569 48.9116 129.836 46.1017 129.836C43.8994 129.757 43.2159 126.527 42.6843 124.321C42.2287 122.115 42.0768 119.83 41.0895 117.861C40.1023 115.812 38.4316 114.315 36.9128 112.661C29.0907 104.704 24.0786 94.2255 20.8131 83.4321C19.674 79.5717 20.4334 63.8937 23.8508 57.591C26.2809 53.1003 28.9389 48.846 32.0525 44.7492C35.318 40.4161 39.8745 37.5011 44.5069 34.9013C49.0634 32.3014 57.493 30.3318 62.657 29.7015C71.5422 28.6773 79.5161 29.4652 89.6923 37.1072C96.1473 41.8342 101.387 47.1127 104.501 56.488C106.551 62.5544 107.994 68.148 108.526 72.4811Z" fill="#FFF383" fill-opacity="0.7"/>
<path d="M105.868 60.7424C105.412 59.3242 104.957 57.9061 104.501 56.488C101.387 47.1128 96.1473 41.8342 89.6923 37.1072C79.5161 29.4652 71.5422 28.6773 62.657 29.7015C57.493 30.3318 49.0634 32.3014 44.5069 34.9013C39.8745 37.5011 35.318 40.4161 32.0525 44.7492C28.9389 48.846 26.2809 53.1003 23.8508 57.591C20.4334 63.8937 19.674 79.5717 20.8131 83.4321C24.0786 94.2255 29.0907 104.704 36.9127 112.661C38.4316 114.315 40.1023 115.812 41.0895 117.861C42.0768 119.83 42.2287 122.115 42.6843 124.321C43.2159 126.527 43.8994 129.757 46.1017 129.836C47.013 129.836 48.6078 129.993 50.6582 130.23C50.962 125.109 50.5063 118.648 47.2408 114.709C29.0907 93.0437 25.3696 63.9725 41.773 50.0278C59.3915 35.1376 86.7306 34.98 105.868 60.7424Z" fill="#FFF383" fill-opacity="0.7"/>
<path d="M52.7847 83.8263C50.4305 84.1414 48.3041 84.0626 46.5575 83.4323C44.2792 82.6445 40.9378 79.8871 42.0769 76.8933C44.583 70.0391 51.1899 79.2568 52.1012 81.7779C52.3291 82.4869 52.5569 83.1172 52.7847 83.8263ZM76.1748 84.299C76.5545 83.196 77.0101 82.1718 77.4658 81.2264C79.2125 77.6023 79.9719 76.6569 83.9968 76.4206C87.0345 76.263 88.7052 76.1842 87.0345 79.4144C84.984 83.4323 80.4275 84.6929 76.1748 84.299ZM103.969 89.1048C102.603 94.856 100.248 99.1103 96.6791 103.759C93.7173 107.619 89.8443 111.085 87.7179 115.576C85.4397 120.54 86.8826 127 80.7313 128.654C78.453 129.285 75.871 129.442 73.2131 129.442C72.7574 121.564 72.6815 113.685 73.2131 105.807C73.5168 99.9769 73.7446 93.2803 75.3394 87.214C76.0229 87.2927 76.7823 87.3715 77.4658 87.3715C83.3133 87.2927 93.2617 82.7233 90.1481 74.6873C89.1608 72.0875 85.9713 71.536 83.6171 71.8511C78.7568 72.5602 75.7951 77.4448 74.1244 81.6991C73.8965 82.4081 73.6687 83.0384 73.4409 83.7475C72.6815 83.5899 71.922 83.2748 71.2386 82.9596C69.6438 82.2506 68.125 81.2264 66.758 80.1234C72.0739 75.16 74.2762 67.3604 67.2896 62.3183C62.2774 58.6154 57.4931 67.1241 58.2525 71.6935C58.7082 74.8449 60.3029 77.7599 62.4293 80.1234C60.3789 81.5415 58.0247 82.5657 55.5946 83.196C53.772 77.0508 49.823 69.5664 42.6085 72.245C38.1279 73.8995 38.2798 79.8083 40.9378 83.1172C43.9755 87.0564 48.7598 87.6867 53.4682 86.7413C54.6833 92.5713 54.7592 98.6376 55.063 104.546C55.4427 112.661 55.8983 120.776 56.278 128.812C55.4427 128.733 54.6833 128.654 53.8479 128.575C52.1772 128.418 50.1268 128.497 48.532 128.024C45.1905 127 44.8868 124.951 44.1273 121.564C42.0769 112.504 33.7233 107.067 29.3187 99.0315C24.9141 91.0744 21.8005 83.1172 22.3321 73.8207C22.9396 63.5788 26.4329 55.7004 32.4323 47.5069C45.1146 30.1745 71.998 26.4716 88.7811 38.8407C97.9701 45.6161 102.375 54.4399 105.185 65.6272C107.235 73.8995 105.868 80.99 103.969 89.1048ZM78.453 148.508C75.1875 148.744 71.922 148.902 68.6565 149.059C65.5429 149.217 62.3534 149.374 59.2398 149.453C58.1766 149.453 43.0642 149.611 46.3297 144.962C46.4056 144.805 46.4815 144.726 46.4815 144.569C52.9366 146.144 62.7331 145.672 65.467 145.672C67.6693 145.75 78.3771 146.302 85.1359 144.49C89.4646 146.932 79.744 148.35 78.453 148.508ZM68.2768 155.283C67.0618 155.756 65.2392 155.913 63.9482 155.913C62.809 155.913 61.8977 156.071 61.4421 155.126C61.0624 154.495 60.9864 153.392 60.8345 152.526C64.4038 152.447 67.5934 152.211 69.8716 152.053C69.7197 153.392 69.416 154.81 68.2768 155.283ZM77.5417 142.678C73.5168 142.914 69.4919 142.757 65.467 142.678C62.0496 142.678 58.6322 142.678 55.2149 142.441C52.8607 142.363 41.3175 142.678 44.3552 137.951C49.0636 140.393 57.9488 139.448 61.594 139.605C69.2641 139.92 77.6177 140.787 85.06 138.975C85.8194 138.817 86.5029 138.581 87.0345 138.266C89.3127 142.205 79.2125 142.599 77.5417 142.678ZM62.5812 75.2388C61.1383 72.7177 59.9992 68.5422 62.6571 66.2575C65.8467 63.5788 67.7452 66.8089 68.2768 69.8815C68.8084 73.1117 67.2896 75.9479 64.8595 78.3114C63.9482 77.366 63.1887 76.3418 62.5812 75.2388ZM58.0247 107.067C57.7209 100.134 57.8728 92.8864 56.354 86.0322C59.2398 85.0868 62.0496 83.5899 64.3279 82.0142C66.6821 84.1414 69.5678 85.7958 72.5296 86.6625C68.8084 100.056 69.5678 116.049 70.3273 129.442C68.7325 129.442 67.1377 129.363 65.6948 129.363C63.4925 129.442 61.3661 129.285 59.1638 129.127C58.7841 121.8 58.4044 114.394 58.0247 107.067ZM47.9244 131.884C53.772 132.672 59.7714 133.381 65.6948 133.381C70.9348 133.302 76.1748 132.987 81.4148 132.593C82.8577 132.515 84.2246 132.436 85.4397 132.042C89.3127 135.902 78.3012 136.848 75.6432 136.927C72.3018 137.005 69.0363 136.927 65.6948 136.769C62.1256 136.69 58.5563 136.533 54.9111 136.296C53.2404 136.217 40.2543 134.09 45.7221 131.49C46.4056 131.648 47.0891 131.806 47.9244 131.884ZM68.7325 27.417C58.1766 27.2595 47.241 30.2533 38.4317 36.3196C23.1674 46.7979 13.8266 69.6452 20.2816 88.0018C22.7118 94.7772 25.7494 101.395 29.9262 107.304C31.8248 109.982 33.9511 112.267 36.1535 114.71C39.419 118.412 39.8746 121.8 41.1656 126.291C41.6972 127.945 42.3047 129.127 43.0642 129.994C41.4694 131.49 40.634 133.775 42.001 135.981C42.0769 136.06 42.0769 136.06 42.1529 136.139C39.2671 139.92 40.5581 142.284 43.6717 143.623C38.9633 150.792 48.6079 152.368 58.0247 152.526C58.1766 154.023 58.3285 155.677 58.936 156.938C59.7714 158.75 62.2015 158.907 63.9482 158.907C65.9986 158.828 68.8084 158.671 70.5551 157.568C72.3018 156.465 72.6055 153.865 72.7574 151.817C77.162 151.659 85.1359 152.289 88.4774 148.665C90.1481 146.853 89.6165 144.805 88.3255 143.308C90.8316 141.89 91.7429 139.763 89.3127 136.375C90.4518 134.721 89.9962 132.515 87.9458 130.387C88.2495 129.994 88.5533 129.521 88.8571 128.969C90.1481 126.37 89.3887 123.691 89.9962 120.933C90.9075 116.285 94.097 113.291 96.9069 109.825C100.4 105.492 104.121 101.159 106.096 95.8014C112.779 77.7599 111.336 55.3853 97.4385 41.1254C89.7684 33.247 79.6681 27.4958 68.7325 27.417Z" fill="#7C7C7C"/>
<path d="M126.828 38.2104C122.043 40.4951 117.107 42.5435 112.778 45.7737C111.259 46.8766 112.702 49.4765 114.221 48.3735C118.55 45.1434 123.486 43.0162 128.27 40.8103C129.941 40.0224 128.498 37.4226 126.828 38.2104Z" fill="#FFF383"/>
<path d="M93.5654 26.0773C96.8308 21.7442 99.261 17.0172 101.843 12.2902C102.754 10.6357 100.324 9.06002 99.4129 10.7933C96.9068 15.2839 94.6285 19.8534 91.5149 24.0289C90.3758 25.5258 92.4262 27.653 93.5654 26.0773Z" fill="#FFF383"/>
<path d="M65.087 17.0173C65.4667 11.8176 65.6186 6.61784 65.6186 1.41811C65.6186 0.551487 65.087 0.0787838 64.4794 0H63.796C63.1884 0.0787838 62.7328 0.551487 62.7328 1.41811C62.7328 6.61784 62.5809 11.8176 62.2012 17.0173C62.1252 18.9081 65.011 18.9081 65.087 17.0173Z" fill="#FFF383"/>
<path d="M35.2423 26.2353C36.2295 27.811 38.7356 26.3141 37.6724 24.7384C34.6347 20.0114 31.2174 15.2844 29.2429 9.92706C28.6353 8.19382 25.8255 8.98166 26.509 10.7149C28.5594 16.3873 31.9768 21.2719 35.2423 26.2353Z" fill="#FFF383"/>
<path d="M15.7252 45.3008C11.3965 41.9919 6.68811 39.3921 1.67596 37.2649C0.688712 36.871 -0.0707054 37.7376 0.00523637 38.683C0.00523637 39.3133 0.233062 39.8648 0.916538 40.1799C5.70087 42.1495 10.1055 44.7494 14.2823 47.9007C15.7252 49.0825 17.1681 46.4826 15.7252 45.3008Z" fill="#FFF383"/>
<path d="M223.122 329.632C221.451 309.699 220.54 289.688 219.021 269.677C222.439 272.907 225.78 276.137 229.122 279.446C233.374 283.622 238.235 287.404 242.108 291.973C247.272 298.039 242.867 304.106 238.842 309.148C235.197 313.717 231.704 318.444 228.134 323.093C226.464 325.299 224.793 327.505 223.122 329.632ZM265.346 316.79C259.65 325.22 252.512 332.783 246.132 340.583C243.626 343.655 241.12 346.728 238.083 349.249C233.298 353.346 223.882 358.23 218.717 352.243C212.111 344.522 227.071 330.892 231.4 325.141C236.184 318.838 242.108 312.851 245.905 305.918C249.474 299.379 249.398 294.1 244.158 288.428C235.956 279.762 226.919 271.489 218.11 263.453C216.971 262.429 214.693 262.981 214.844 264.871C216.667 287.64 217.654 310.487 219.553 333.256C219.553 333.492 219.629 333.728 219.705 333.886C219.249 334.516 218.717 335.147 218.262 335.777C215.832 338.771 213.781 341.607 213.553 345.625C213.174 351.77 215.984 357.915 222.211 358.782C222.666 358.86 223.122 358.86 223.502 358.939C227.527 378.005 230.792 397.307 232.691 416.767C233.526 425.512 234.665 434.572 234.361 443.317C234.21 446.468 233.982 449.777 232.235 452.456C229.197 457.104 223.426 457.025 220.388 452.456C217.882 448.753 216.591 444.105 215.072 439.929C208.617 422.36 202.238 404.634 196.467 386.829C194.416 380.526 193.125 373.987 190.239 368.078C188.113 363.666 183.86 356.655 178.392 356.418C168.292 355.867 164.267 375.799 162.369 383.047C157.66 401.01 154.471 418.973 147.712 436.384C145.434 442.371 138.903 463.407 129.562 453.716C122.803 446.783 124.322 434.099 125.081 425.196C126.144 411.094 127.435 397.071 128.878 383.047C131.612 356.182 134.878 329.395 138.295 302.688C139.282 295.203 140.27 287.798 141.257 280.313C141.864 275.822 143.383 270.229 141.713 265.817C138.143 256.284 120.297 268.495 114.981 271.253C105.792 275.98 89.4646 285.355 80.3515 275.665C75.9469 271.017 73.6687 263.375 71.8461 257.387C69.5678 249.902 67.5933 242.339 65.0113 234.934C59.8473 220.201 55.1389 204.917 55.6705 189.081C55.8983 182.857 59.2397 178.052 65.6948 178.209C71.5423 178.446 75.0356 183.567 77.0101 188.687C78.8327 193.493 79.6681 198.693 81.3388 203.656C82.8576 208.226 84.6043 212.795 86.0472 217.444C88.4773 225.243 89.9961 233.279 92.73 241C93.7173 243.757 94.9324 249.351 98.3497 249.824C100.324 250.139 103.362 248.169 105.109 247.381C110.197 245.018 115.285 242.497 120.373 240.055C132.599 234.225 144.978 228.001 157.888 223.904C159.483 223.352 159.711 221.225 158.344 220.28C140.877 208.305 129.638 188.294 133.739 166.234C137.839 143.859 160.318 129.048 180.823 126.606C192.062 125.188 206.491 126.054 216.439 132.121C226.615 138.423 233.526 148.823 237.399 160.168C245.829 184.827 236.792 211.535 213.933 223.51C212.49 224.219 212.87 226.11 213.933 226.898C227.982 238.085 241.044 250.375 253.954 262.981C260.789 269.756 269.371 276.61 272.105 286.379C275.142 297.094 271.269 308.045 265.346 316.79ZM267.472 271.095C252.891 254.393 235.577 239.267 218.338 225.48C234.21 216.025 245.221 197.59 244.841 178.446C244.386 158.671 233.982 137.005 216.591 127.709C207.706 122.982 195.631 121.8 185.759 122.194C175.81 122.588 166.621 125.267 157.812 130.151C142.548 138.581 130.017 153.156 129.334 171.828C129.03 180.1 129.714 189.633 133.283 197.196C137.839 206.887 144.902 215.001 153.18 221.304C142.776 225.007 132.675 229.813 122.727 234.618C117.487 237.061 112.323 239.582 107.083 242.103C105.26 242.97 103.362 243.836 101.463 244.703C101.008 244.86 99.9445 245.491 99.4129 245.569C98.8813 245.569 98.6535 245.569 98.5776 245.569C98.6535 245.569 98.8054 245.569 98.7295 245.491C96.9828 244.388 95.9955 238.715 95.388 236.746C94.3248 233.358 93.3376 229.891 92.4263 226.425C89.9961 216.735 86.3509 207.517 83.5411 197.984C80.2756 186.875 75.6432 170.016 60.7586 174.979C56.2021 176.555 52.9366 180.179 52.1012 185.063C50.7342 193.099 52.4809 203.105 53.9238 211.062C56.8096 226.819 63.4165 241.945 67.8211 257.387C70.8588 267.944 75.2634 281.18 87.1104 283.307C97.4384 285.119 107.918 279.289 116.955 274.719C119.765 273.222 122.575 271.804 125.385 270.465C129.182 268.732 136.624 263.532 138.447 269.835C139.055 272.12 138.067 275.35 137.764 277.713C136.852 284.567 135.941 291.422 135.03 298.197C131.384 326.48 127.967 354.685 125.005 383.047C123.411 398.568 121.816 414.088 120.904 429.687C120.449 437.172 120.373 445.601 123.866 452.377C125.841 456.237 130.169 460.807 134.65 460.728C139.814 460.57 143.763 454.74 145.889 450.565C150.294 442.293 153.408 432.76 156.293 423.778C162.065 405.737 163.28 385.647 171.254 368.393C173.684 363.194 177.177 357.836 183.329 364.297C186.898 367.999 188.493 373.593 190.011 378.478C192.973 388.483 196.391 398.331 199.808 408.179C203.605 419.13 207.402 430.081 211.351 440.953C213.629 447.177 215.832 456.631 222.363 459.546C228.058 462.067 233.906 458.128 236.412 452.85C240.285 444.498 237.855 432.917 237.171 424.093C235.425 402.113 231.931 380.29 227.451 358.782C234.286 357.758 240.437 352.952 245.145 347.752C252.512 339.558 259.878 330.735 266.485 321.832C278.256 305.918 281.142 286.695 267.472 271.095Z" fill="#7C7C7C"/>
<path d="M235.348 454.661C232.539 458.994 227.375 461.752 222.362 459.546C219.704 458.364 217.73 456 216.211 453.322C205.503 452.77 193.429 452.455 180.67 452.455C167.532 452.455 155.23 452.77 144.294 453.4C142.016 456.946 138.675 460.649 134.65 460.727C131.08 460.806 127.587 457.891 125.309 454.74C109.969 456.237 100.476 458.364 100.476 460.727C100.476 465.297 136.396 469 180.67 469C224.944 469 260.789 465.297 260.789 460.727C260.789 458.364 250.992 456.237 235.348 454.661Z" fill="#E1E0E0"/>
<path fill-rule="evenodd" clip-rule="evenodd" d="M164.267 149.532C171.33 149.532 177.101 155.519 177.101 162.846C177.101 170.173 171.33 176.161 164.267 176.161C157.205 176.161 151.433 170.173 151.433 162.846C151.433 155.519 157.205 149.532 164.267 149.532Z" fill="#F0F0F0" fill-opacity="0.5"/>
<path fill-rule="evenodd" clip-rule="evenodd" d="M199.732 149.532C206.795 149.532 212.566 155.519 212.566 162.846C212.566 170.173 206.795 176.161 199.732 176.161C192.594 176.161 186.898 170.173 186.898 162.846C186.898 155.519 192.594 149.532 199.732 149.532Z" fill="#F0F0F0" fill-opacity="0.5"/>
<path d="M165.027 156.938C164.495 161.743 164.191 166.628 164.267 171.434C164.267 173.876 167.912 173.876 167.836 171.434C167.836 166.628 168.064 161.743 168.672 156.938C168.976 154.574 165.33 154.574 165.027 156.938Z" fill="#7C7C7C"/>
<path d="M200.036 158.198C199.352 162.925 198.972 167.652 198.972 172.379C198.972 174.979 202.77 174.979 202.77 172.379C202.77 167.967 203.149 163.634 203.757 159.222C204.061 156.78 200.415 155.677 200.036 158.198Z" fill="#7C7C7C"/>
<path d="M175.372 200.713C193.323 203.504 202.266 201.423 215.193 187.841" stroke="#7C7C7C" stroke-width="3" stroke-linecap="round"/>
</svg>
