<svg width="344" height="612" viewBox="0 0 344 612" fill="none" xmlns="http://www.w3.org/2000/svg">
<path d="M134.905 94.5658C135.377 98.7802 131.79 116.665 130.28 121.908C128.864 126.944 126.692 130.953 123.577 134.962C120.556 138.765 118.574 142.054 115.364 145.652C111.871 149.455 109.7 154.492 109.134 159.734C108.945 162.304 109.606 165.079 108.284 167.238C107.529 168.471 106.774 170.424 103.658 170.424C98.4664 170.321 87.4215 171.452 81.6631 171.452C74.111 171.658 60.8004 169.396 57.3076 169.396C54.57 169.293 53.7204 165.079 53.0596 162.201C52.4932 159.323 52.3043 156.342 51.0771 153.772C49.8499 151.1 47.7731 149.147 45.8851 146.988C36.1618 136.607 29.9313 122.936 25.8721 108.853C24.4561 103.817 25.4001 83.3618 29.6481 75.1387C32.6689 69.2797 35.973 63.7291 39.8434 58.3841C43.9027 52.7307 49.5667 48.9275 55.3252 45.5355C60.9892 42.1435 71.4678 39.5737 77.887 38.7514C88.9319 37.4152 98.844 38.4431 111.494 48.4136C119.518 54.5809 126.032 61.4678 129.902 73.6997C132.451 81.6144 134.244 88.9124 134.905 94.5658Z" fill="#FFF383" fill-opacity="0.2"/>
<path d="M131.601 79.2503C131.035 77.4001 130.468 75.5499 129.902 73.6997C126.032 61.4678 119.518 54.5809 111.494 48.4136C98.844 38.4431 88.9319 37.4152 77.887 38.7514C71.4677 39.5737 60.9892 42.1435 55.3252 45.5355C49.5667 48.9275 43.9027 52.7307 39.8434 58.3841C35.973 63.7291 32.6689 69.2797 29.6481 75.1387C25.4001 83.3618 24.4561 103.817 25.8721 108.854C29.9313 122.936 36.1618 136.607 45.8851 146.988C47.7731 149.147 49.8499 151.1 51.0771 153.772C52.3043 156.342 52.4931 159.323 53.0596 162.201C53.7204 165.079 54.57 169.293 57.3076 169.396C58.4404 169.396 60.4228 169.602 62.9717 169.91C63.3493 163.229 62.7829 154.8 58.7236 149.661C36.1618 121.394 31.5361 83.4646 51.9267 65.271C73.8278 45.8439 107.812 45.6383 131.601 79.2503Z" fill="#FFF383" fill-opacity="0.2"/>
<path d="M65.6149 109.368C62.6885 109.779 60.0452 109.676 57.874 108.854C55.042 107.826 50.8883 104.228 52.3044 100.322C55.4196 91.3795 63.6325 103.406 64.7653 106.695C65.0485 107.62 65.3317 108.442 65.6149 109.368ZM94.6904 109.984C95.1624 108.545 95.7288 107.209 96.2952 105.976C98.4664 101.247 99.4105 100.014 104.414 99.7054C108.19 99.4998 110.267 99.397 108.19 103.611C105.641 108.854 99.9769 110.498 94.6904 109.984ZM129.241 116.254C127.542 123.758 124.616 129.309 120.179 135.373C116.497 140.41 111.683 144.933 109.039 150.792C106.207 157.267 108.001 165.696 100.354 167.854C97.5224 168.677 94.3128 168.882 91.0088 168.882C90.4424 158.603 90.348 148.325 91.0088 138.046C91.3864 130.439 91.6696 121.702 93.652 113.787C94.5016 113.89 95.4456 113.993 96.2952 113.993C103.564 113.89 115.931 107.929 112.06 97.444C110.833 94.052 106.868 93.3325 103.942 93.7436C97.9 94.6687 94.2184 101.042 92.1416 106.592C91.8584 107.517 91.5752 108.34 91.292 109.265C90.348 109.059 89.404 108.648 88.5543 108.237C86.5719 107.312 84.6839 105.976 82.9847 104.536C89.5928 98.0608 92.3304 87.8847 83.6455 81.3062C77.415 76.4751 71.4678 87.5763 72.4118 93.538C72.9782 97.6496 74.9606 101.453 77.6038 104.536C75.055 106.387 72.1286 107.723 69.1077 108.545C66.8421 100.528 61.9333 90.7627 52.9652 94.2576C47.3955 96.4161 47.5843 104.125 50.8883 108.442C54.6644 113.582 60.6116 114.404 66.4645 113.171C67.9749 120.777 68.0693 128.692 68.4469 136.401C68.9189 146.988 69.4853 157.576 69.9573 168.06C68.9189 167.957 67.9749 167.854 66.9365 167.752C64.8597 167.546 62.3109 167.649 60.3284 167.032C56.1748 165.696 55.7972 163.023 54.8532 158.603C52.3044 146.783 41.9202 139.69 36.445 129.206C30.9697 118.824 27.0993 108.442 27.7601 96.3133C28.5153 82.9508 32.8578 72.6719 40.3154 61.9818C56.0804 39.3683 89.4984 34.5372 110.361 50.675C121.783 59.5149 127.259 71.0273 130.752 85.6233C133.3 96.4161 131.601 105.667 129.241 116.254ZM97.5224 193.757C93.4632 194.066 89.404 194.271 85.3447 194.477C81.4743 194.682 77.5094 194.888 73.639 194.991C72.3174 194.991 53.5316 195.196 57.5908 189.132C57.6852 188.926 57.7796 188.823 57.7796 188.618C65.8037 190.674 77.9814 190.057 81.3799 190.057C84.1175 190.16 97.428 190.879 105.83 188.515C111.211 191.702 99.1273 193.552 97.5224 193.757ZM84.8727 202.597C83.3623 203.214 81.0967 203.419 79.4918 203.419C78.0758 203.419 76.943 203.625 76.3766 202.392C75.9046 201.569 75.8102 200.13 75.6214 199C80.0583 198.897 84.0231 198.588 86.8551 198.383C86.6663 200.13 86.2887 201.98 84.8727 202.597ZM96.3896 186.151C91.3864 186.459 86.3831 186.254 81.3799 186.151C77.1318 186.151 72.8838 186.151 68.6357 185.843C65.7093 185.74 51.3603 186.151 55.1364 179.984C60.9893 183.17 72.0342 181.937 76.5654 182.142C86.0999 182.553 96.484 183.684 105.735 181.32C106.679 181.114 107.529 180.806 108.19 180.395C111.022 185.534 98.4664 186.048 96.3896 186.151ZM77.7926 98.1636C75.999 94.8743 74.583 89.4265 77.887 86.4456C81.8519 82.9508 84.2119 87.1651 84.8727 91.1739C85.5335 95.3882 83.6455 99.0886 80.6247 102.172C79.4918 100.939 78.5478 99.6026 77.7926 98.1636ZM72.1286 139.69C71.751 130.645 71.9398 121.188 70.0517 112.246C73.639 111.012 77.1318 109.059 79.9639 107.003C82.8903 109.779 86.4775 111.937 90.1592 113.068C85.5335 130.542 86.4775 151.408 87.4215 168.882C85.4391 168.882 83.4567 168.78 81.6631 168.78C78.9254 168.882 76.2822 168.677 73.5446 168.471C73.0726 158.912 72.6006 149.25 72.1286 139.69ZM59.5732 172.069C66.8421 173.097 74.2998 174.022 81.6631 174.022C88.1767 173.919 94.6904 173.508 101.204 172.994C102.998 172.891 104.697 172.788 106.207 172.274C111.022 177.311 97.3336 178.545 94.0296 178.647C89.876 178.75 85.8167 178.647 81.6631 178.442C77.2262 178.339 72.7894 178.133 68.2581 177.825C66.1813 177.722 50.0387 174.947 56.8356 171.555C57.6852 171.76 58.5348 171.966 59.5732 172.069ZM85.4391 35.7707C72.3174 35.5651 58.7236 39.4711 47.7731 47.3858C28.7985 61.0567 17.1872 90.8655 25.2113 114.815C28.2321 123.655 32.0081 132.289 37.2002 139.999C39.5602 143.493 42.2035 146.474 44.9411 149.661C49.0003 154.492 49.5667 158.912 51.1715 164.771C51.8324 166.929 52.5876 168.471 53.5316 169.602C51.5492 171.555 50.5107 174.536 52.21 177.414C52.3044 177.517 52.3044 177.517 52.3988 177.619C48.8115 182.553 50.4163 185.637 54.2868 187.384C48.4339 196.738 60.4228 198.794 72.1286 199C72.3174 200.953 72.5062 203.111 73.2614 204.756C74.2998 207.12 77.3206 207.325 79.4918 207.325C82.0407 207.223 85.5335 207.017 87.7047 205.578C89.876 204.139 90.2536 200.747 90.4424 198.074C95.9176 197.869 105.83 198.691 109.983 193.963C112.06 191.599 111.399 188.926 109.795 186.973C112.91 185.123 114.043 182.348 111.022 177.928C112.438 175.769 111.871 172.891 109.323 170.116C109.7 169.602 110.078 168.985 110.455 168.266C112.06 164.874 111.116 161.379 111.871 157.781C113.004 151.717 116.969 147.811 120.462 143.288C124.804 137.635 129.43 131.981 131.884 124.991C140.192 101.453 138.398 72.2607 121.123 53.6559C111.588 43.377 99.0329 35.8734 85.4391 35.7707Z" fill="#EAEAEA"/>
<path d="M157.656 49.8526C151.709 52.8335 145.573 55.506 140.192 59.7203C138.304 61.1594 140.097 64.5514 141.985 63.1124C147.366 58.898 153.502 56.1227 159.449 53.2446C161.526 52.2167 159.733 48.8247 157.656 49.8526Z" fill="#FFF383" fill-opacity="0.5"/>
<path d="M116.308 34.0232C120.368 28.3698 123.389 22.2025 126.598 16.0351C127.731 13.8766 124.71 11.8208 123.577 14.0822C120.462 19.9411 117.63 25.9029 113.76 31.3507C112.344 33.3037 114.892 36.079 116.308 34.0232Z" fill="#FFF383" fill-opacity="0.5"/>
<path d="M80.9079 22.2024C81.3799 15.4183 81.5687 8.63427 81.5687 1.8502C81.5687 0.719523 80.9079 0.102789 80.1527 0H79.3031C78.5479 0.102789 77.9815 0.719523 77.9815 1.8502C77.9815 8.63427 77.7927 15.4183 77.3207 22.2024C77.2263 24.6694 80.8135 24.6694 80.9079 22.2024Z" fill="#FFF383" fill-opacity="0.5"/>
<path d="M43.8087 34.2288C45.0359 36.2845 48.1511 34.3315 46.8295 32.2758C43.0535 26.1084 38.8054 19.9411 36.351 12.9514C35.5958 10.6901 32.103 11.718 32.9526 13.9793C35.5014 21.3801 39.7494 27.753 43.8087 34.2288Z" fill="#FFF383" fill-opacity="0.5"/>
<path d="M19.5475 59.1035C14.1667 54.7864 8.3138 51.3943 2.08333 48.619C0.856118 48.1051 -0.0878918 49.2358 0.00650918 50.4692C0.00650918 51.2916 0.289712 52.0111 1.13932 52.4222C7.08658 54.992 12.5618 58.384 17.7539 62.4956C19.5475 64.0374 21.3411 60.6454 19.5475 59.1035Z" fill="#FFF383" fill-opacity="0.5"/>
<path d="M277.356 430.069C275.279 404.064 274.147 377.955 272.259 351.847C276.507 356.061 280.66 360.275 284.814 364.593C290.1 370.04 296.142 374.974 300.956 380.936C307.376 388.851 301.9 396.766 296.897 403.344C292.366 409.306 288.024 415.473 283.587 421.538C281.51 424.416 279.433 427.294 277.356 430.069ZM329.843 413.315C322.763 424.313 313.889 434.181 305.96 444.357C302.844 448.366 299.729 452.374 295.953 455.664C290.006 461.009 278.3 467.382 271.881 459.57C263.668 449.496 282.265 431.714 287.646 424.21C293.593 415.987 300.956 408.175 305.677 399.13C310.113 390.598 310.019 383.711 303.505 376.311C293.31 365.004 282.076 354.211 271.126 343.726C269.71 342.39 266.878 343.11 267.067 345.577C269.332 375.283 270.559 405.091 272.919 434.797C272.919 435.106 273.014 435.414 273.108 435.62C272.542 436.442 271.881 437.264 271.315 438.087C268.294 441.993 265.745 445.693 265.462 450.935C264.99 458.953 268.483 466.97 276.223 468.101C276.79 468.204 277.356 468.204 277.828 468.307C282.831 493.182 286.891 518.365 289.251 543.754C290.289 555.163 291.705 566.984 291.328 578.394C291.139 582.505 290.856 586.822 288.684 590.317C284.908 596.382 277.734 596.279 273.958 590.317C270.843 585.486 269.238 579.422 267.35 573.974C259.326 551.052 251.396 527.924 244.221 504.694C241.673 496.471 240.068 487.939 236.481 480.23C233.837 474.474 228.551 465.326 221.754 465.017C209.199 464.298 204.195 490.303 201.835 499.76C195.983 523.196 192.018 546.632 183.616 569.348C180.784 577.16 172.666 604.605 161.054 591.962C152.653 582.916 154.541 566.367 155.485 554.752C156.806 536.353 158.411 518.057 160.205 499.76C163.603 464.709 167.662 429.761 171.91 394.915C173.138 385.15 174.365 375.488 175.592 365.723C176.347 359.864 178.235 352.566 176.158 346.81C171.722 334.373 149.537 350.305 142.929 353.903C131.507 360.07 111.21 372.302 99.8824 359.659C94.4071 353.594 91.5751 343.624 89.3095 335.812C86.4774 326.047 84.023 316.179 80.8134 306.517C74.3941 287.295 68.5413 267.354 69.2021 246.694C69.4853 238.573 73.6389 232.303 81.663 232.509C88.9319 232.817 93.2743 239.498 95.7287 246.18C97.9944 252.45 99.0328 259.234 101.11 265.71C102.998 271.671 105.169 277.633 106.962 283.698C109.983 293.874 111.871 304.358 115.27 314.432C116.497 318.029 118.007 325.327 122.255 325.944C124.71 326.355 128.486 323.785 130.657 322.758C136.982 319.674 143.307 316.385 149.632 313.198C164.83 305.592 180.218 297.471 196.266 292.126C198.248 291.407 198.531 288.632 196.832 287.398C175.12 271.774 161.149 245.666 166.246 216.885C171.344 187.693 199.287 168.368 224.775 165.182C238.746 163.332 256.682 164.462 269.049 172.377C281.699 180.6 290.289 194.169 295.104 208.97C305.582 241.143 294.348 275.989 265.934 291.612C264.14 292.538 264.612 295.004 265.934 296.032C283.398 310.628 299.635 326.663 315.683 343.11C324.179 351.95 334.846 360.892 338.245 373.638C342.021 387.617 337.206 401.905 329.843 413.315ZM332.486 353.697C314.361 331.906 292.838 312.17 271.409 294.182C291.139 281.847 304.827 257.795 304.355 232.817C303.788 207.017 290.856 178.75 269.238 166.621C258.193 160.454 243.183 158.912 230.911 159.426C218.544 159.94 207.122 163.435 196.171 169.808C177.197 180.806 161.621 199.822 160.771 224.183C160.393 234.976 161.243 247.413 165.68 257.281C171.344 269.924 180.123 280.511 190.413 288.734C177.48 293.565 164.925 299.836 152.558 306.106C146.044 309.292 139.625 312.581 133.112 315.871C130.846 317.001 128.486 318.132 126.126 319.263C125.559 319.468 124.238 320.291 123.577 320.393C122.916 320.393 122.633 320.393 122.539 320.393C122.633 320.393 122.822 320.393 122.727 320.291C120.556 318.852 119.329 311.451 118.574 308.881C117.252 304.461 116.025 299.938 114.892 295.416C111.871 282.773 107.34 270.746 103.847 258.309C99.788 243.816 94.0295 221.819 75.5269 228.294C69.8629 230.35 65.8036 235.079 64.7652 241.451C63.066 251.936 65.2372 264.99 67.0308 275.372C70.6181 295.93 78.831 315.665 84.3062 335.812C88.0823 349.585 93.5575 366.854 108.284 369.629C121.123 371.993 134.15 364.387 145.384 358.425C148.876 356.472 152.369 354.622 155.862 352.875C160.582 350.613 169.834 343.829 172.099 352.052C172.854 355.033 171.627 359.248 171.25 362.331C170.117 371.274 168.984 380.217 167.851 389.056C163.32 425.958 159.072 462.756 155.39 499.76C153.408 520.01 151.425 540.259 150.293 560.611C149.726 570.376 149.632 581.375 153.974 590.214C156.429 595.251 161.809 601.213 167.379 601.11C173.798 600.904 178.707 593.298 181.35 587.85C186.826 577.057 190.696 564.62 194.283 552.902C201.458 529.363 202.968 503.152 212.88 480.641C215.901 473.857 220.244 466.868 227.89 475.296C232.327 480.127 234.309 487.425 236.197 493.798C239.879 506.853 244.127 519.701 248.375 532.55C253.095 546.837 257.815 561.125 262.724 575.31C265.556 583.43 268.294 595.765 276.412 599.568C283.492 602.857 290.761 597.718 293.876 590.831C298.691 579.935 295.67 564.826 294.82 553.313C292.649 524.635 288.307 496.162 282.737 468.101C291.233 466.765 298.88 460.495 304.732 453.711C313.889 443.021 323.046 431.508 331.259 419.893C345.891 399.13 349.479 374.049 332.486 353.697Z" fill="#EAEAEA"/>
<path d="M292.555 593.195C289.062 598.848 282.642 602.446 276.412 599.568C273.108 598.026 270.654 594.942 268.766 591.448C255.455 590.728 240.445 590.317 224.586 590.317C208.254 590.317 192.962 590.728 179.368 591.55C176.536 596.176 172.382 601.007 167.379 601.11C162.942 601.213 158.6 597.409 155.768 593.298C136.699 595.251 124.898 598.026 124.898 601.11C124.898 607.072 169.55 611.903 224.586 611.903C279.622 611.903 324.179 607.072 324.179 601.11C324.179 598.026 312.001 595.251 292.555 593.195Z" fill="#F0F0F0"/>
<path fill-rule="evenodd" clip-rule="evenodd" d="M204.196 195.094C212.975 195.094 220.15 202.905 220.15 212.465C220.15 222.024 212.975 229.836 204.196 229.836C195.417 229.836 188.242 222.024 188.242 212.465C188.242 202.905 195.417 195.094 204.196 195.094Z" fill="#F0F0F0" fill-opacity="0.5"/>
<path fill-rule="evenodd" clip-rule="evenodd" d="M248.281 195.094C257.06 195.094 264.235 202.905 264.235 212.465C264.235 222.024 257.06 229.836 248.281 229.836C239.407 229.836 232.327 222.024 232.327 212.465C232.327 202.905 239.407 195.094 248.281 195.094Z" fill="#F0F0F0" fill-opacity="0.5"/>
<path d="M205.14 204.756C204.479 211.026 204.101 217.399 204.196 223.669C204.196 226.855 208.727 226.855 208.632 223.669C208.632 217.399 208.916 211.026 209.671 204.756C210.048 201.672 205.517 201.672 205.14 204.756Z" fill="#B3B3B3"/>
<path d="M248.658 206.4C247.808 212.568 247.336 218.735 247.336 224.902C247.336 228.294 252.056 228.294 252.056 224.902C252.056 219.146 252.528 213.493 253.284 207.737C253.661 204.55 249.13 203.111 248.658 206.4Z" fill="#B3B3B3"/>
<path d="M215 265C237.314 268.47 248.431 265.883 264.5 249" stroke="#EAEAEA" stroke-width="3" stroke-linecap="round"/>
</svg>
