<svg width="109" height="167" viewBox="0 0 109 167" fill="none" xmlns="http://www.w3.org/2000/svg">
<path d="M42.4313 25.8087C42.5795 26.9589 41.4529 31.8402 40.9785 33.2709C40.5337 34.6455 39.8518 35.7395 38.8733 36.8336C37.9245 37.8716 37.3019 38.7693 36.2938 39.7511C35.1968 40.7891 34.5148 42.1637 34.3369 43.5944C34.2776 44.2957 34.4852 45.0532 34.0701 45.6423C33.8329 45.9789 33.5957 46.5119 32.6173 46.5119C30.9865 46.4839 27.5175 46.7925 25.7089 46.7925C23.3369 46.8486 19.1563 46.2314 18.0593 46.2314C17.1994 46.2033 16.9326 45.0532 16.725 44.2677C16.5471 43.4822 16.4878 42.6687 16.1024 41.9673C15.717 41.2379 15.0647 40.7049 14.4717 40.1158C11.4178 37.2825 9.46087 33.5514 8.18594 29.7081C7.74119 28.3335 8.03769 22.751 9.37192 20.5067C10.3207 18.9077 11.3585 17.3928 12.5741 15.9341C13.849 14.3911 15.628 13.3532 17.4366 12.4274C19.2156 11.5017 22.5067 10.8003 24.5229 10.5759C27.9919 10.2112 31.1051 10.4918 35.0782 13.2129C37.5984 14.8961 39.6442 16.7757 40.8599 20.114C41.6604 22.2741 42.2238 24.2658 42.4313 25.8087Z" fill="#FFF383"/>
<path d="M41.3936 21.6288C41.2157 21.1239 41.0378 20.6189 40.8599 20.114C39.6442 16.7757 37.5984 14.8961 35.0782 13.2129C31.1051 10.4918 27.9919 10.2112 24.5229 10.5759C22.5067 10.8003 19.2156 11.5017 17.4366 12.4274C15.628 13.3532 13.849 14.3911 12.5741 15.9341C11.3585 17.3928 10.3207 18.9077 9.37192 20.5067C8.03769 22.751 7.74119 28.3335 8.18594 29.7081C9.46087 33.5514 11.4178 37.2825 14.4717 40.1158C15.0647 40.7049 15.717 41.2379 16.1024 41.9673C16.4878 42.6687 16.5471 43.4822 16.725 44.2677C16.9326 45.0532 17.1994 46.2033 18.0593 46.2314C18.4151 46.2314 19.0377 46.2875 19.8383 46.3717C19.9569 44.5482 19.779 42.2479 18.504 40.8452C11.4178 33.1306 9.96492 22.779 16.3692 17.8136C23.248 12.5116 33.9218 12.4555 41.3936 21.6288Z" fill="#FFF383" fill-opacity="0.7"/>
<path d="M20.6684 29.8487C19.7493 29.961 18.9191 29.9329 18.2371 29.7085C17.3477 29.4279 16.0431 28.4461 16.4878 27.3801C17.4663 24.9394 20.0458 28.2217 20.4016 29.1194C20.4905 29.3718 20.5795 29.5963 20.6684 29.8487ZM29.8005 30.0171C29.9488 29.6243 30.1267 29.2596 30.3046 28.923C30.9865 27.6325 31.283 27.2959 32.8544 27.2117C34.0404 27.1556 34.6927 27.1276 34.0404 28.2778C33.2399 29.7085 31.4609 30.1573 29.8005 30.0171ZM40.6523 31.7283C40.1186 33.7762 39.1995 35.291 37.8059 36.9462C36.6496 38.3208 35.1374 39.5551 34.3073 41.1541C33.4178 42.9215 33.9811 45.2218 31.5795 45.811C30.69 46.0354 29.6819 46.0915 28.6442 46.0915C28.4663 43.2862 28.4366 40.4809 28.6442 37.6756C28.7628 35.5996 28.8517 33.2151 29.4744 31.055C29.7412 31.0831 30.0377 31.1111 30.3046 31.1111C32.5876 31.0831 36.4717 29.456 35.256 26.5946C34.8706 25.6688 33.6253 25.4725 32.7062 25.5847C30.8086 25.8371 29.6523 27.5764 29 29.0913C28.911 29.3438 28.8221 29.5682 28.7331 29.8207C28.4366 29.7646 28.1401 29.6524 27.8733 29.5402C27.2506 29.2877 26.6576 28.923 26.124 28.5302C28.1994 26.7629 29.0593 23.9856 26.3315 22.1902C24.3746 20.8717 22.5067 23.9015 22.8032 25.5286C22.9811 26.6507 23.6037 27.6887 24.4339 28.5302C23.6334 29.0352 22.7142 29.3999 21.7655 29.6243C21.0539 27.4362 19.5121 24.7711 16.6954 25.7249C14.946 26.3141 15.0053 28.418 16.0431 29.5963C17.2291 30.9989 19.097 31.2233 20.9353 30.8867C21.4097 32.9626 21.4393 35.1227 21.5579 37.2267C21.7062 40.1162 21.8841 43.0056 22.0323 45.8671C21.7062 45.839 21.4097 45.811 21.0835 45.7829C20.4312 45.7268 19.6307 45.7548 19.008 45.5865C17.7035 45.2218 17.5849 44.4925 17.2884 43.2862C16.4878 40.0601 13.2264 38.1244 11.5067 35.263C9.78699 32.4296 8.57135 29.5963 8.7789 26.286C9.0161 22.6391 10.38 19.8338 12.7223 16.9163C17.6738 10.7446 28.1698 9.42609 34.7224 13.8304C38.31 16.243 40.0296 19.3849 41.1267 23.3685C41.9272 26.3141 41.3935 28.8388 40.6523 31.7283ZM30.69 52.8803C29.4151 52.9645 28.1401 53.0206 26.8652 53.0767C25.6496 53.1328 24.4043 53.1889 23.1886 53.217C22.7735 53.217 16.8733 53.2731 18.1482 51.6179C18.1778 51.5618 18.2075 51.5338 18.2075 51.4777C20.7277 52.0387 24.5525 51.8704 25.6199 51.8704C26.4797 51.8985 30.6604 52.0948 33.2992 51.4496C34.9892 52.3193 31.194 52.8242 30.69 52.8803ZM26.7169 55.2929C26.2426 55.4612 25.531 55.5173 25.0269 55.5173C24.5822 55.5173 24.2264 55.5734 24.0485 55.2368C23.9002 55.0124 23.8706 54.6196 23.8113 54.311C25.2048 54.283 26.4501 54.1988 27.3396 54.1427C27.2803 54.6196 27.1617 55.1246 26.7169 55.2929ZM30.3342 50.8044C28.7628 50.8886 27.1913 50.8325 25.6199 50.8044C24.2857 50.8044 22.9514 50.8044 21.6172 50.7202C20.6981 50.6922 16.1913 50.8044 17.3773 49.1212C19.2156 49.9909 22.6846 49.6542 24.1078 49.7103C27.1024 49.8225 30.3639 50.1311 33.2695 49.4859C33.566 49.4298 33.8329 49.3456 34.0404 49.2334C34.9299 50.6361 30.9865 50.7763 30.3342 50.8044ZM24.4932 26.791C23.9299 25.8933 23.4851 24.4064 24.5229 23.5929C25.7682 22.6391 26.5094 23.7893 26.7169 24.8833C26.9245 26.0335 26.3315 27.0434 25.3827 27.885C25.0269 27.5484 24.7304 27.1837 24.4932 26.791ZM22.7142 38.1244C22.5956 35.6557 22.6549 33.0748 22.0619 30.6342C23.1886 30.2976 24.2857 29.7646 25.1752 29.2035C26.0943 29.961 27.221 30.5501 28.3773 30.8587C26.9245 35.6277 27.221 41.3225 27.5175 46.0915C26.8948 46.0915 26.2722 46.0634 25.7089 46.0634C24.849 46.0915 24.0188 46.0354 23.159 45.9793C23.0107 43.3703 22.8625 40.7333 22.7142 38.1244ZM18.7708 46.9611C21.0539 47.2417 23.3962 47.4941 25.7089 47.4941C27.7547 47.4661 29.8005 47.3539 31.8463 47.2136C32.4097 47.1856 32.9434 47.1575 33.4178 47.0172C34.9299 48.3918 30.6307 48.7285 29.593 48.7565C28.2884 48.7846 27.0134 48.7565 25.7089 48.7004C24.3153 48.6724 22.9218 48.6163 21.4986 48.5321C20.8463 48.504 15.7762 47.7466 17.911 46.8209C18.1778 46.877 18.4447 46.9331 18.7708 46.9611ZM26.8948 9.76272C22.7735 9.70662 18.504 10.7726 15.0646 12.9327C9.10505 16.6638 5.45814 24.7992 7.97836 31.3356C8.92715 33.7481 10.1131 36.1046 11.7439 38.2086C12.4851 39.1624 13.3153 39.9759 14.1751 40.8456C15.4501 42.1641 15.628 43.3703 16.132 44.9694C16.3396 45.5585 16.5768 45.9793 16.8733 46.2879C16.2506 46.8209 15.9245 47.6344 16.4582 48.4199C16.4878 48.4479 16.4878 48.4479 16.5175 48.476C15.3908 49.8225 15.8948 50.6641 17.1105 51.141C15.2722 53.6939 19.0377 54.2549 22.7142 54.311C22.7735 54.844 22.8328 55.4332 23.07 55.882C23.3962 56.5272 24.345 56.5833 25.0269 56.5833C25.8275 56.5553 26.9245 56.4992 27.6064 56.1064C28.2884 55.7137 28.407 54.7879 28.4663 54.0586C30.186 54.0025 33.2992 54.2269 34.6038 52.9364C35.256 52.2912 35.0485 51.5618 34.5445 51.0288C35.5229 50.5239 35.8787 49.7664 34.9299 48.5602C35.3746 47.971 35.1967 47.1856 34.3962 46.4281C34.5148 46.2879 34.6334 46.1195 34.752 45.9232C35.256 44.9974 34.9596 44.0436 35.1967 43.0617C35.5525 41.4066 36.7978 40.3406 37.8949 39.1063C39.2588 37.5633 40.7116 36.0204 41.4825 34.1128C44.0916 27.6887 43.5283 19.7216 38.1024 14.644C35.1078 11.8387 31.1644 9.79078 26.8948 9.76272Z" fill="white"/>
<path d="M49.5767 13.6059C47.7088 14.4194 45.7815 15.1488 44.0915 16.299C43.4985 16.6917 44.0619 17.6175 44.6548 17.2248C46.3449 16.0746 48.2721 15.3171 50.14 14.5317C50.7923 14.2511 50.229 13.3254 49.5767 13.6059Z" fill="#FFF383"/>
<path d="M36.5908 9.28544C37.8657 7.74252 38.8145 6.05933 39.8226 4.37615C40.1784 3.78703 39.2296 3.22597 38.8738 3.84314C37.8953 5.44217 37.0059 7.06925 35.7902 8.55606C35.3455 9.08907 36.146 9.8465 36.5908 9.28544Z" fill="#FFF383"/>
<path d="M25.472 6.05947C25.6202 4.20796 25.6795 2.35646 25.6795 0.504956C25.6795 0.196372 25.472 0.0280531 25.2348 0H24.9679C24.7307 0.0280531 24.5528 0.196372 24.5528 0.504956C24.5528 2.35646 24.4935 4.20796 24.3453 6.05947C24.3157 6.73274 25.4423 6.73274 25.472 6.05947Z" fill="#FFF383"/>
<path d="M13.8194 9.34195C14.2049 9.90301 15.1833 9.37 14.7682 8.80894C13.5822 7.12576 12.248 5.44257 11.4771 3.53496C11.2399 2.9178 10.1429 3.19833 10.4097 3.81549C11.2102 5.83532 12.5445 7.57461 13.8194 9.34195Z" fill="#FFF383"/>
<path d="M6.19958 16.1305C4.50955 14.9522 2.67127 14.0265 0.714396 13.2691C0.32895 13.1288 0.0324533 13.4374 0.062103 13.774C0.062103 13.9984 0.151052 14.1948 0.417899 14.307C2.28583 15.0084 4.00551 15.9341 5.63624 17.0562C6.19958 17.477 6.76293 16.5513 6.19958 16.1305Z" fill="#FFF383"/>
<path d="M87.1725 117.374C86.5202 110.277 86.1644 103.152 85.5714 96.026C86.9057 97.1762 88.2103 98.3264 89.5149 99.5046C91.1752 100.991 93.0728 102.338 94.5849 103.965C96.6011 106.125 94.8814 108.285 93.31 110.081C91.8868 111.708 90.5229 113.391 89.1294 115.046C88.4771 115.832 87.8248 116.617 87.1725 117.374ZM103.658 112.802C101.434 115.803 98.6469 118.497 96.1564 121.274C95.1779 122.368 94.1995 123.462 93.0135 124.36C91.1456 125.818 87.469 127.558 85.4529 125.426C82.8733 122.676 88.7143 117.823 90.4043 115.775C92.2723 113.531 94.5849 111.399 96.0674 108.93C97.461 106.602 97.4313 104.722 95.3855 102.703C92.1833 99.6168 88.655 96.6713 85.2157 93.8098C84.7709 93.4452 83.8814 93.6415 83.9407 94.3148C84.6523 102.422 85.0378 110.558 85.779 118.665C85.779 118.749 85.8086 118.833 85.8383 118.889C85.6604 119.114 85.4529 119.338 85.275 119.563C84.3262 120.629 83.5256 121.639 83.4367 123.069C83.2884 125.257 84.3855 127.445 86.8167 127.754C86.9946 127.782 87.1725 127.782 87.3208 127.81C88.8922 134.599 90.1671 141.472 90.9084 148.401C91.2345 151.515 91.6793 154.741 91.5607 157.855C91.5014 158.977 91.4124 160.155 90.7305 161.109C89.5445 162.764 87.2911 162.736 86.1051 161.109C85.1267 159.791 84.6227 158.136 84.0297 156.649C81.5094 150.393 79.0189 144.081 76.7655 137.741C75.965 135.497 75.4609 133.168 74.3342 131.064C73.504 129.493 71.8437 126.997 69.7089 126.912C65.7655 126.716 64.194 133.814 63.4528 136.394C61.6145 142.791 60.3692 149.187 57.7304 155.386C56.8409 157.518 54.2911 165.009 50.6442 161.558C48.0053 159.089 48.5983 154.573 48.8948 151.403C49.3099 146.381 49.814 141.388 50.3773 136.394C51.4447 126.828 52.7196 117.29 54.0539 107.78C54.4393 105.115 54.8248 102.478 55.2102 99.8132C55.4474 98.2142 56.0404 96.2224 55.3881 94.6514C53.9946 91.257 47.0269 95.6052 44.9514 96.5871C41.3638 98.2703 34.9891 101.609 31.4312 98.1581C29.7115 96.5029 28.822 93.7818 28.1104 91.6498C27.2209 88.9847 26.45 86.2916 25.442 83.6546C23.4258 78.4087 21.5875 72.9664 21.795 67.3277C21.884 65.1115 23.1886 63.4003 25.7088 63.4564C27.9918 63.5406 29.3557 65.364 30.1266 67.1875C30.8382 68.8987 31.1643 70.7502 31.8166 72.5176C32.4096 74.1446 33.0916 75.7717 33.6549 77.4268C34.6037 80.2041 35.1967 83.0655 36.2641 85.8147C36.6495 86.7966 37.1239 88.7883 38.4581 88.9567C39.229 89.0689 40.415 88.3675 41.097 88.087C43.0835 87.2454 45.07 86.3477 47.0565 85.4781C51.8301 83.4022 56.663 81.186 61.7035 79.7272C62.3261 79.5308 62.4151 78.7734 61.8814 78.4368C55.062 74.1727 50.6738 67.0472 52.2749 59.1923C53.876 51.2253 62.6523 45.9513 70.6577 45.0816C75.0458 44.5767 80.6793 44.8853 84.5634 47.0454C88.5364 49.2896 91.2345 52.9926 92.7467 57.0323C96.0378 65.8129 92.5095 75.3229 83.5849 79.5869C83.0216 79.8394 83.1698 80.5127 83.5849 80.7932C89.0701 84.7768 94.1699 89.153 99.2103 93.6415C101.879 96.0541 105.229 98.4947 106.297 101.973C107.483 105.789 105.97 109.688 103.658 112.802ZM104.488 96.531C98.7952 90.5837 92.0351 85.1976 85.3046 80.2883C91.5014 76.9219 95.8006 70.3575 95.6523 63.5406C95.4744 56.4992 91.4124 48.7846 84.6227 45.4744C81.1537 43.7912 76.4394 43.3704 72.5849 43.5107C68.7008 43.6509 65.1132 44.6047 61.6738 46.344C55.7142 49.3457 50.8221 54.5355 50.5552 61.1841C50.4366 64.1297 50.7035 67.5241 52.097 70.2172C53.876 73.6677 56.6334 76.5572 59.8652 78.8014C55.8032 80.1199 51.8598 81.8312 47.9757 83.5424C45.9299 84.4121 43.9137 85.3098 41.8679 86.2075C41.1563 86.516 40.415 86.8246 39.6738 87.1332C39.4959 87.1893 39.0808 87.4137 38.8732 87.4418C38.6657 87.4418 38.5767 87.4418 38.5471 87.4418C38.5767 87.4418 38.636 87.4418 38.6064 87.4137C37.9245 87.021 37.539 85.0012 37.3018 84.2999C36.8867 83.0936 36.5013 81.8592 36.1455 80.6249C35.1967 77.1744 33.7735 73.8922 32.6765 70.4977C31.4015 66.5422 29.5929 60.5389 23.7816 62.3062C22.0026 62.8673 20.7277 64.1577 20.4015 65.897C19.8678 68.7584 20.5498 72.3212 21.1131 75.1545C22.2398 80.7652 24.8193 86.1514 26.539 91.6498C27.725 95.4089 29.4447 100.122 34.07 100.879C38.1024 101.524 42.194 99.4485 45.7223 97.8214C46.8194 97.2884 47.9164 96.7835 49.0134 96.3066C50.4959 95.6894 53.4016 93.8379 54.1132 96.0821C54.3504 96.8957 53.9649 98.0459 53.8463 98.8875C53.4905 101.328 53.1347 103.769 52.7789 106.181C51.3557 116.252 50.0215 126.295 48.8652 136.394C48.2425 141.921 47.6199 147.447 47.2641 153.002C47.0862 155.667 47.0565 158.669 48.4204 161.081C49.1913 162.456 50.8814 164.083 52.6307 164.055C54.6469 163.999 56.1886 161.923 57.0188 160.436C58.7385 157.49 59.9542 154.096 61.0808 150.898C63.3342 144.474 63.8086 137.32 66.9218 131.177C67.8706 129.325 69.2345 127.417 71.6361 129.718C73.0296 131.036 73.6523 133.028 74.2453 134.767C75.4016 138.33 76.7359 141.837 78.0701 145.343C79.5526 149.243 81.0351 153.142 82.5768 157.013C83.4663 159.23 84.3262 162.596 86.876 163.634C89.0998 164.532 91.3828 163.129 92.3612 161.249C93.8734 158.276 92.9246 154.152 92.6577 151.01C91.9758 143.183 90.6119 135.413 88.8626 127.754C91.531 127.389 93.9327 125.678 95.7709 123.827C98.6469 120.909 101.523 117.767 104.102 114.597C108.698 108.93 109.825 102.086 104.488 96.531Z" fill="white"/>
<path d="M91.9459 161.894C90.8488 163.437 88.8326 164.419 86.8758 163.634C85.838 163.213 85.0671 162.371 84.4741 161.417C80.2935 161.221 75.5793 161.109 70.5981 161.109C65.4687 161.109 60.6655 161.221 56.3959 161.446C55.5064 162.708 54.2019 164.026 52.6304 164.054C51.2369 164.083 49.873 163.045 48.9835 161.922C42.9943 162.455 39.2881 163.213 39.2881 164.054C39.2881 165.682 53.3124 167 70.5981 167C87.8839 167 101.878 165.682 101.878 164.054C101.878 163.213 98.0537 162.455 91.9459 161.894Z" fill="#E1E0E0"/>
<path d="M64.4917 55.8817C64.2841 57.5929 64.1655 59.3322 64.1952 61.0434C64.1952 61.9131 65.6184 61.9131 65.5887 61.0434C65.5887 59.3322 65.6777 57.5929 65.9149 55.8817C66.0335 55.0401 64.6103 55.0401 64.4917 55.8817Z" fill="white"/>
<path d="M78.1587 56.3307C77.8919 58.0139 77.7437 59.6971 77.7437 61.3803C77.7437 62.306 79.2261 62.306 79.2261 61.3803C79.2261 59.8093 79.3744 58.2664 79.6116 56.6954C79.7302 55.8258 78.307 55.433 78.1587 56.3307Z" fill="white"/>
<path fill-rule="evenodd" clip-rule="evenodd" d="M84.64 66.3457C84.9382 66.6569 84.9277 67.1509 84.6165 67.449C82.0438 69.9143 79.7997 71.4017 77.2487 72.115C74.7108 72.8248 71.956 72.7429 68.4199 72.2414C67.9932 72.1809 67.6963 71.7859 67.7569 71.3592C67.8174 70.9325 68.2124 70.6356 68.6391 70.6961C72.1114 71.1886 74.6067 71.2333 76.8284 70.612C79.0372 69.9943 81.0624 68.6931 83.5366 66.3221C83.8478 66.024 84.3418 66.0345 84.64 66.3457Z" fill="white"/>
</svg>
