<svg width="277" height="469" viewBox="0 0 277 469" fill="none" xmlns="http://www.w3.org/2000/svg">
<path d="M108.526 72.4811C108.906 75.7113 106.02 89.4197 104.805 93.4376C103.666 97.298 101.919 100.371 99.4128 103.443C96.9827 106.358 95.3879 108.879 92.8059 111.637C89.9961 114.552 88.2494 118.412 87.7937 122.43C87.6419 124.4 88.1735 126.527 87.1103 128.181C86.5027 129.127 85.8952 130.624 83.3891 130.624C79.2123 130.545 70.3271 131.411 65.6947 131.411C59.6193 131.569 48.9116 129.836 46.1017 129.836C43.8994 129.757 43.2159 126.527 42.6843 124.321C42.2287 122.115 42.0768 119.83 41.0895 117.861C40.1023 115.812 38.4316 114.315 36.9128 112.661C29.0907 104.704 24.0786 94.2255 20.8131 83.4321C19.674 79.5717 20.4334 63.8937 23.8508 57.591C26.2809 53.1003 28.9389 48.846 32.0525 44.7492C35.318 40.4161 39.8745 37.5011 44.5069 34.9013C49.0634 32.3014 57.493 30.3318 62.657 29.7015C71.5422 28.6773 79.5161 29.4652 89.6923 37.1072C96.1473 41.8342 101.387 47.1127 104.501 56.488C106.551 62.5544 107.994 68.148 108.526 72.4811Z" fill="#FFF383" fill-opacity="0.7"/>
<path d="M105.868 60.7424C105.412 59.3242 104.957 57.9061 104.501 56.488C101.387 47.1128 96.1473 41.8342 89.6923 37.1072C79.5161 29.4652 71.5422 28.6773 62.657 29.7015C57.493 30.3318 49.0634 32.3014 44.5069 34.9013C39.8745 37.5011 35.318 40.4161 32.0525 44.7492C28.9389 48.846 26.2809 53.1003 23.8508 57.591C20.4334 63.8937 19.674 79.5717 20.8131 83.4321C24.0786 94.2255 29.0907 104.704 36.9127 112.661C38.4316 114.315 40.1023 115.812 41.0895 117.861C42.0768 119.83 42.2287 122.115 42.6843 124.321C43.2159 126.527 43.8994 129.757 46.1017 129.836C47.013 129.836 48.6078 129.993 50.6582 130.23C50.962 125.109 50.5063 118.648 47.2408 114.709C29.0907 93.0437 25.3696 63.9725 41.773 50.0278C59.3915 35.1376 86.7306 34.98 105.868 60.7424Z" fill="#FFF383" fill-opacity="0.7"/>
<path d="M52.785 83.8263C50.4308 84.1414 48.3044 84.0626 46.5577 83.4323C44.2795 82.6445 40.938 79.8871 42.0772 76.8933C44.5832 70.0391 51.1902 79.2568 52.1015 81.7779C52.3293 82.4869 52.5571 83.1172 52.785 83.8263ZM76.175 84.299C76.5547 83.196 77.0104 82.1718 77.466 81.2264C79.2127 77.6023 79.9721 76.6569 83.997 76.4206C87.0347 76.263 88.7054 76.1842 87.0347 79.4144C84.9843 83.4323 80.4278 84.6929 76.175 84.299ZM103.97 89.1048C102.603 94.856 100.249 99.1103 96.6793 103.759C93.7176 107.619 89.8446 111.085 87.7182 115.576C85.4399 120.54 86.8828 127 80.7315 128.654C78.4533 129.285 75.8713 129.442 73.2133 129.442C72.7576 121.564 72.6817 113.685 73.2133 105.807C73.5171 99.9769 73.7449 93.2803 75.3397 87.214C76.0231 87.2927 76.7826 87.3715 77.466 87.3715C83.3136 87.2927 93.2619 82.7233 90.1483 74.6873C89.1611 72.0875 85.9715 71.536 83.6173 71.8511C78.757 72.5602 75.7953 77.4448 74.1246 81.6991C73.8968 82.4081 73.6689 83.0384 73.4411 83.7475C72.6817 83.5899 71.9223 83.2748 71.2388 82.9596C69.644 82.2506 68.1252 81.2264 66.7582 80.1234C72.0742 75.16 74.2765 67.3604 67.2898 62.3183C62.2777 58.6154 57.4933 67.1241 58.2528 71.6935C58.7084 74.8449 60.3032 77.7599 62.4296 80.1234C60.3791 81.5415 58.0249 82.5657 55.5948 83.196C53.7722 77.0508 49.8232 69.5664 42.6088 72.245C38.1282 73.8995 38.2801 79.8083 40.938 83.1172C43.9757 87.0564 48.76 87.6867 53.4684 86.7413C54.6835 92.5713 54.7594 98.6376 55.0632 104.546C55.4429 112.661 55.8986 120.776 56.2783 128.812C55.4429 128.733 54.6835 128.654 53.8481 128.575C52.1774 128.418 50.127 128.497 48.5322 128.024C45.1908 127 44.887 124.951 44.1276 121.564C42.0772 112.504 33.7236 107.067 29.3189 99.0315C24.9143 91.0744 21.8007 83.1172 22.3323 73.8207C22.9398 63.5788 26.4332 55.7004 32.4326 47.5069C45.1148 30.1745 71.9982 26.4716 88.7814 38.8407C97.9703 45.6161 102.375 54.4399 105.185 65.6272C107.235 73.8995 105.868 80.99 103.97 89.1048ZM78.4533 148.508C75.1878 148.744 71.9223 148.902 68.6568 149.059C65.5432 149.217 62.3536 149.374 59.24 149.453C58.1768 149.453 43.0644 149.611 46.3299 144.962C46.4058 144.805 46.4818 144.726 46.4818 144.569C52.9368 146.144 62.7333 145.672 65.4672 145.672C67.6695 145.75 78.3773 146.302 85.1362 144.49C89.4648 146.932 79.7443 148.35 78.4533 148.508ZM68.2771 155.283C67.062 155.756 65.2394 155.913 63.9484 155.913C62.8093 155.913 61.898 156.071 61.4423 155.126C61.0626 154.495 60.9867 153.392 60.8348 152.526C64.404 152.447 67.5936 152.211 69.8719 152.053C69.72 153.392 69.4162 154.81 68.2771 155.283ZM77.542 142.678C73.5171 142.914 69.4921 142.757 65.4672 142.678C62.0499 142.678 58.6325 142.678 55.2151 142.441C52.8609 142.363 41.3177 142.678 44.3554 137.951C49.0638 140.393 57.949 139.448 61.5942 139.605C69.2643 139.92 77.6179 140.787 85.0602 138.975C85.8196 138.817 86.5031 138.581 87.0347 138.266C89.313 142.205 79.2127 142.599 77.542 142.678ZM62.5814 75.2388C61.1386 72.7177 59.9994 68.5422 62.6574 66.2575C65.8469 63.5788 67.7455 66.8089 68.2771 69.8815C68.8087 73.1117 67.2898 75.9479 64.8597 78.3114C63.9484 77.366 63.189 76.3418 62.5814 75.2388ZM58.0249 107.067C57.7212 100.134 57.8731 92.8864 56.3542 86.0322C59.24 85.0868 62.0499 83.5899 64.3281 82.0142C66.6823 84.1414 69.5681 85.7958 72.5298 86.6625C68.8087 100.056 69.5681 116.049 70.3275 129.442C68.7327 129.442 67.138 129.363 65.6951 129.363C63.4927 129.442 61.3664 129.285 59.1641 129.127C58.7844 121.8 58.4046 114.394 58.0249 107.067ZM47.9247 131.884C53.7722 132.672 59.7716 133.381 65.6951 133.381C70.935 133.302 76.175 132.987 81.415 132.593C82.8579 132.515 84.2249 132.436 85.4399 132.042C89.313 135.902 78.3014 136.848 75.6434 136.927C72.302 137.005 69.0365 136.927 65.6951 136.769C62.1258 136.69 58.5565 136.533 54.9113 136.296C53.2406 136.217 40.2546 134.09 45.7224 131.49C46.4058 131.648 47.0893 131.806 47.9247 131.884ZM68.7327 27.417C58.1768 27.2595 47.2412 30.2533 38.432 36.3196C23.1677 46.7979 13.8268 69.6452 20.2819 88.0018C22.712 94.7772 25.7497 101.395 29.9265 107.304C31.825 109.982 33.9514 112.267 36.1537 114.71C39.4192 118.412 39.8749 121.8 41.1659 126.291C41.6975 127.945 42.305 129.127 43.0644 129.994C41.4696 131.49 40.6343 133.775 42.0012 135.981C42.0772 136.06 42.0772 136.06 42.1531 136.139C39.2673 139.92 40.5583 142.284 43.6719 143.623C38.9636 150.792 48.6082 152.368 58.0249 152.526C58.1768 154.023 58.3287 155.677 58.9362 156.938C59.7716 158.75 62.2017 158.907 63.9484 158.907C65.9988 158.828 68.8087 158.671 70.5553 157.568C72.302 156.465 72.6058 153.865 72.7576 151.817C77.1623 151.659 85.1362 152.289 88.4776 148.665C90.1483 146.853 89.6167 144.805 88.3257 143.308C90.8318 141.89 91.7431 139.763 89.313 136.375C90.4521 134.721 89.9964 132.515 87.946 130.387C88.2498 129.994 88.5535 129.521 88.8573 128.969C90.1483 126.37 89.3889 123.691 89.9964 120.933C90.9077 116.285 94.0973 113.291 96.9071 109.825C100.4 105.492 104.122 101.159 106.096 95.8014C112.779 77.7599 111.336 55.3853 97.4387 41.1254C89.7686 33.247 79.6684 27.4958 68.7327 27.417Z" fill="#7C7C7C"/>
<path d="M126.828 38.2104C122.043 40.4951 117.107 42.5435 112.779 45.7737C111.26 46.8766 112.703 49.4765 114.221 48.3735C118.55 45.1434 123.486 43.0162 128.271 40.8103C129.941 40.0224 128.498 37.4226 126.828 38.2104Z" fill="#FFF383"/>
<path d="M93.5654 26.0773C96.8308 21.7442 99.261 17.0172 101.843 12.2902C102.754 10.6357 100.324 9.06002 99.4129 10.7933C96.9068 15.2839 94.6285 19.8534 91.5149 24.0289C90.3758 25.5258 92.4262 27.653 93.5654 26.0773Z" fill="#FFF383"/>
<path d="M65.087 17.0173C65.4667 11.8176 65.6186 6.61784 65.6186 1.41811C65.6186 0.551487 65.087 0.0787838 64.4794 0H63.796C63.1884 0.0787838 62.7328 0.551487 62.7328 1.41811C62.7328 6.61784 62.5809 11.8176 62.2012 17.0173C62.1252 18.9081 65.011 18.9081 65.087 17.0173Z" fill="#FFF383"/>
<path d="M35.2425 26.2353C36.2298 27.811 38.7358 26.3141 37.6727 24.7384C34.635 20.0114 31.2176 15.2844 29.2431 9.92706C28.6356 8.19382 25.8257 8.98166 26.5092 10.7149C28.5596 16.3873 31.977 21.2719 35.2425 26.2353Z" fill="#FFF383"/>
<path d="M15.7252 45.3008C11.3965 41.9919 6.68811 39.3921 1.67596 37.2649C0.688712 36.871 -0.0707054 37.7376 0.00523637 38.683C0.00523637 39.3133 0.233062 39.8648 0.916538 40.1799C5.70087 42.1495 10.1055 44.7494 14.2823 47.9007C15.7252 49.0825 17.1681 46.4826 15.7252 45.3008Z" fill="#FFF383"/>
<path d="M223.122 329.632C221.452 309.699 220.54 289.688 219.021 269.677C222.439 272.907 225.78 276.137 229.122 279.446C233.374 283.622 238.235 287.404 242.108 291.973C247.272 298.039 242.867 304.106 238.842 309.148C235.197 313.717 231.704 318.444 228.135 323.093C226.464 325.299 224.793 327.505 223.122 329.632ZM265.346 316.79C259.65 325.22 252.512 332.783 246.133 340.583C243.627 343.655 241.121 346.728 238.083 349.249C233.299 353.346 223.882 358.23 218.718 352.243C212.111 344.522 227.071 330.892 231.4 325.141C236.184 318.838 242.108 312.851 245.905 305.918C249.474 299.379 249.398 294.1 244.158 288.428C235.956 279.762 226.919 271.489 218.11 263.453C216.971 262.429 214.693 262.981 214.845 264.871C216.667 287.64 217.655 310.487 219.553 333.256C219.553 333.492 219.629 333.728 219.705 333.886C219.249 334.516 218.718 335.147 218.262 335.777C215.832 338.771 213.781 341.607 213.554 345.625C213.174 351.77 215.984 357.915 222.211 358.782C222.667 358.86 223.122 358.86 223.502 358.939C227.527 378.005 230.792 397.307 232.691 416.767C233.526 425.512 234.665 434.572 234.362 443.317C234.21 446.468 233.982 449.777 232.235 452.456C229.198 457.104 223.426 457.025 220.388 452.456C217.882 448.753 216.591 444.105 215.073 439.929C208.617 422.36 202.238 404.634 196.467 386.829C194.416 380.526 193.125 373.987 190.24 368.078C188.113 363.666 183.86 356.655 178.393 356.418C168.292 355.867 164.267 375.799 162.369 383.047C157.661 401.01 154.471 418.973 147.712 436.384C145.434 442.371 138.903 463.407 129.562 453.716C122.803 446.783 124.322 434.099 125.081 425.196C126.145 411.094 127.436 397.071 128.879 383.047C131.612 356.182 134.878 329.395 138.295 302.688C139.283 295.203 140.27 287.798 141.257 280.313C141.865 275.822 143.383 270.229 141.713 265.817C138.143 256.284 120.297 268.495 114.981 271.253C105.792 275.98 89.4648 285.355 80.3518 275.665C75.9472 271.017 73.6689 263.375 71.8463 257.387C69.5681 249.902 67.5936 242.339 65.0115 234.934C59.8475 220.201 55.1391 204.917 55.6707 189.081C55.8985 182.857 59.24 178.052 65.695 178.209C71.5425 178.446 75.0359 183.567 77.0103 188.687C78.833 193.493 79.6683 198.693 81.339 203.656C82.8579 208.226 84.6045 212.795 86.0474 217.444C88.4776 225.243 89.9964 233.279 92.7303 241C93.7175 243.757 94.9326 249.351 98.35 249.824C100.324 250.139 103.362 248.169 105.109 247.381C110.197 245.018 115.285 242.497 120.373 240.055C132.6 234.225 144.978 228.001 157.888 223.904C159.483 223.352 159.711 221.225 158.344 220.28C140.877 208.305 129.638 188.294 133.739 166.234C137.84 143.859 160.318 129.048 180.823 126.606C192.062 125.188 206.491 126.054 216.439 132.121C226.616 138.423 233.526 148.823 237.399 160.168C245.829 184.827 236.792 211.535 213.933 223.51C212.49 224.219 212.87 226.11 213.933 226.898C227.983 238.085 241.045 250.375 253.955 262.981C260.789 269.756 269.371 276.61 272.105 286.379C275.142 297.094 271.269 308.045 265.346 316.79ZM267.472 271.095C252.892 254.393 235.577 239.267 218.338 225.48C234.21 216.025 245.221 197.59 244.842 178.446C244.386 158.671 233.982 137.005 216.591 127.709C207.706 122.982 195.631 121.8 185.759 122.194C175.811 122.588 166.622 125.267 157.812 130.151C142.548 138.581 130.018 153.156 129.334 171.828C129.03 180.1 129.714 189.633 133.283 197.196C137.84 206.887 144.902 215.001 153.18 221.304C142.776 225.007 132.676 229.813 122.727 234.618C117.487 237.061 112.323 239.582 107.083 242.103C105.261 242.97 103.362 243.836 101.464 244.703C101.008 244.86 99.9448 245.491 99.4132 245.569C98.8816 245.569 98.6538 245.569 98.5778 245.569C98.6538 245.569 98.8056 245.569 98.7297 245.491C96.983 244.388 95.9958 238.715 95.3883 236.746C94.3251 233.358 93.3378 229.891 92.4265 226.425C89.9964 216.735 86.3512 207.517 83.5413 197.984C80.2758 186.875 75.6434 170.016 60.7588 174.979C56.2023 176.555 52.9368 180.179 52.1014 185.063C50.7345 193.099 52.4811 203.105 53.924 211.062C56.8098 226.819 63.4168 241.945 67.8214 257.387C70.8591 267.944 75.2637 281.18 87.1106 283.307C97.4387 285.119 107.919 279.289 116.956 274.719C119.766 273.222 122.575 271.804 125.385 270.465C129.182 268.732 136.625 263.532 138.447 269.835C139.055 272.12 138.068 275.35 137.764 277.713C136.852 284.567 135.941 291.422 135.03 298.197C131.385 326.48 127.967 354.685 125.006 383.047C123.411 398.568 121.816 414.088 120.905 429.687C120.449 437.172 120.373 445.601 123.866 452.377C125.841 456.237 130.17 460.807 134.65 460.728C139.814 460.57 143.763 454.74 145.89 450.565C150.294 442.293 153.408 432.76 156.294 423.778C162.065 405.737 163.28 385.647 171.254 368.393C173.684 363.194 177.178 357.836 183.329 364.297C186.898 367.999 188.493 373.593 190.012 378.478C192.973 388.483 196.391 398.331 199.808 408.179C203.605 419.13 207.402 430.081 211.351 440.953C213.63 447.177 215.832 456.631 222.363 459.546C228.059 462.067 233.906 458.128 236.412 452.85C240.285 444.498 237.855 432.917 237.172 424.093C235.425 402.113 231.932 380.29 227.451 358.782C234.286 357.758 240.437 352.952 245.145 347.752C252.512 339.558 259.878 330.735 266.485 321.832C278.256 305.918 281.142 286.695 267.472 271.095Z" fill="#7C7C7C"/>
<path d="M235.348 454.661C232.538 458.994 227.374 461.752 222.362 459.546C219.704 458.364 217.73 456 216.211 453.322C205.503 452.77 193.428 452.455 180.67 452.455C167.532 452.455 155.23 452.77 144.294 453.4C142.016 456.946 138.674 460.649 134.649 460.727C131.08 460.806 127.587 457.891 125.309 454.74C109.968 456.237 100.476 458.364 100.476 460.727C100.476 465.297 136.396 469 180.67 469C224.944 469 260.789 465.297 260.789 460.727C260.789 458.364 250.992 456.237 235.348 454.661Z" fill="#E1E0E0"/>
<path fill-rule="evenodd" clip-rule="evenodd" d="M164.267 149.532C171.33 149.532 177.101 155.519 177.101 162.846C177.101 170.173 171.33 176.161 164.267 176.161C157.205 176.161 151.433 170.173 151.433 162.846C151.433 155.519 157.205 149.532 164.267 149.532Z" fill="#F0F0F0" fill-opacity="0.5"/>
<path fill-rule="evenodd" clip-rule="evenodd" d="M199.732 149.532C206.795 149.532 212.566 155.519 212.566 162.846C212.566 170.173 206.795 176.161 199.732 176.161C192.594 176.161 186.898 170.173 186.898 162.846C186.898 155.519 192.594 149.532 199.732 149.532Z" fill="#F0F0F0" fill-opacity="0.5"/>
<path d="M165.026 156.938C164.495 161.743 164.191 166.628 164.267 171.434C164.267 173.876 167.912 173.876 167.836 171.434C167.836 166.628 168.064 161.743 168.672 156.938C168.975 154.574 165.33 154.574 165.026 156.938Z" fill="#7C7C7C"/>
<path d="M200.035 158.198C199.352 162.925 198.972 167.652 198.972 172.379C198.972 174.979 202.769 174.979 202.769 172.379C202.769 167.967 203.149 163.634 203.757 159.222C204.06 156.78 200.415 155.677 200.035 158.198Z" fill="#7C7C7C"/>
<path d="M175.372 200.713C193.323 203.504 202.266 201.423 215.193 187.841" stroke="#7C7C7C" stroke-width="3" stroke-linecap="round"/>
</svg>
