<svg width="345" height="69" viewBox="0 0 345 69" fill="none" xmlns="http://www.w3.org/2000/svg">
<path fill-rule="evenodd" clip-rule="evenodd" d="M0.0144958 4.21552V8.43132L7.90261 8.5455L15.7907 8.65968L17.3954 9.45751C19.6181 10.5627 20.3842 11.8399 21.0268 15.5118L21.1879 16.4326H10.594H0L0.0769424 20.7532L0.153885 25.0738L10.5385 25.1322C16.2501 25.1642 20.9342 25.2917 20.9476 25.4155C21.1271 27.0661 19.6948 30.1382 18.2903 31.1153C16.3586 32.4591 15.1275 32.6475 7.3325 32.794L0.0144958 32.9314V37.1481V41.3647H7.6609C15.7043 41.3647 18.6042 41.1151 21.3181 40.1895C28.1463 37.8606 32.2224 29.5435 31.7111 18.9824C31.408 12.7239 29.5399 7.85306 26.1059 4.36879C22.2858 0.492976 20.2992 0 8.4992 0H0.0144958V4.21552ZM226.959 0.307968C221.447 1.03298 217.783 3.43044 215.674 7.69186C214.412 10.2409 214.03 13.18 214.002 20.5407L213.979 26.4904L217.603 26.8236C223.894 27.4021 223.453 27.4115 223.492 26.6972C223.512 26.3499 223.543 25.8742 223.562 25.6405C223.592 25.2775 224.422 25.2163 229.242 25.2223C235.474 25.2297 236.739 25.4104 237.75 26.4374C239.215 27.9263 238.725 31.176 236.861 32.3308C236.089 32.8093 235.377 32.8631 229.816 32.864L223.631 32.8651L223.544 31.8027L223.457 30.7402H218.718H213.979L213.903 36.1941L213.828 41.648H226.48C233.813 41.648 239.755 41.5279 240.614 41.3625C245.03 40.5114 247.78 37.7258 248.714 33.1561C249.203 30.7663 248.9 25.7113 248.149 23.7289C247.335 21.5796 245.209 19.2275 243.21 18.2668C240.494 16.961 238.522 16.687 230.599 16.5153L223.244 16.3555L223.409 14.5644C223.658 11.8598 224.416 10.5931 226.333 9.67991L227.918 8.92458L236.909 8.82995L245.899 8.73532V4.36766V0L237.327 0.0359812C232.612 0.0558136 227.946 0.178208 226.959 0.307968ZM316.431 20.824V41.648H320.891H325.352V35.8043V29.9605L328.488 30.0999C331.865 30.2498 332.433 30.3844 332.784 31.1162C332.909 31.3768 333.076 33.8213 333.154 36.5483L333.297 41.5064L337.861 41.5843L342.424 41.6625L342.283 35.3513C342.126 28.3292 341.811 26.612 340.349 24.8101C339.304 23.5209 338.196 22.9248 336.119 22.5333L334.481 22.2245L339.674 16.6538C342.53 13.5897 344.867 11.0118 344.867 10.9245C344.867 10.8376 342.515 10.7755 339.639 10.7871L334.412 10.8078L329.952 15.9427L325.491 21.0779L325.418 10.5389L325.345 0H320.888H316.431V20.824ZM170.748 10.9078C167.886 11.6921 166.178 12.6806 164.188 14.7029C161.175 17.7647 160.035 20.8889 160.035 26.0796C160.035 34.2095 163.557 39.5101 170.21 41.3948C172.376 42.0081 178.46 41.9234 180.386 41.2534C185.118 39.6064 187.849 37.0279 189.492 32.6555C190.065 31.1298 190.24 30.0631 190.355 27.4112C190.435 25.5555 190.389 24.0785 190.251 24.0737C190.115 24.0692 188.247 23.8805 186.101 23.6547C183.954 23.4289 181.947 23.241 181.64 23.2373C181.118 23.2314 181.089 23.3869 181.175 25.7107C181.349 30.3878 179.99 33.1986 177.168 34.0018C174.393 34.7914 171.652 33.7638 170.16 31.3749C169.49 30.3011 169.397 29.8401 169.289 27.0336C169.138 23.1209 169.602 21.2159 171.067 19.727C172.997 17.765 176.737 17.5681 178.96 19.3111C179.547 19.7712 180.192 19.8324 184.466 19.8324C187.611 19.8324 189.307 19.7298 189.307 19.5397C189.307 18.7782 187.696 16.1592 186.336 14.7105C184.618 12.8794 182.423 11.5858 179.927 10.9316C177.809 10.3766 172.733 10.3636 170.748 10.9078ZM293.013 10.9342C287.859 12.3256 283.918 16.5193 282.821 21.7811C281.969 25.862 282.531 31.1295 284.184 34.5588C285.928 38.1799 289.696 40.9361 293.883 41.6537C296.77 42.1487 301.043 41.8818 303.468 41.0553C308.219 39.4364 311.47 35.7286 312.558 30.6887C313.05 28.4043 312.983 23.7833 312.423 21.4198C311.156 16.0776 307.496 12.2559 302.364 10.9163C300.242 10.363 295.093 10.3726 293.013 10.9342ZM35.6985 26.2071V41.648H40.159H44.6195V35.987V30.326L45.2604 30.1625C45.613 30.0727 48.0281 30.0384 50.6269 30.0863L55.3525 30.1736L55.4281 35.9108L55.5034 41.648H60.0977H64.6917V26.2071V10.7662H60.0918H55.4919V16.5742V22.3823H50.0557H44.6195V16.5742V10.7662H40.159H35.6985V26.2071ZM78.4102 11.1982C75.7643 11.7821 73.7671 12.8367 72.1441 14.5068C69.4226 17.3069 68.0329 21.166 68.0418 25.8983C68.0566 33.7525 71.3838 38.8854 77.7944 40.944C79.0247 41.3389 80.7461 41.4639 86.5063 41.5758L93.6849 41.7152V37.7153V33.7151H87.7408C80.9279 33.7151 79.7464 33.4808 78.7004 31.9228C77.3932 29.9755 77.1794 30.0319 85.8791 30.0319H93.6849L93.6852 26.1363V22.2406L85.8793 22.32L78.0732 22.3996L78.0743 21.7533C78.076 20.6019 79.0709 19.3255 80.2192 19.0014C80.8161 18.8329 83.9886 18.7017 87.482 18.7008L93.6849 18.6991V14.7326V10.7662L86.9245 10.7885C82.3288 10.8041 79.6023 10.935 78.4102 11.1982ZM97.8666 31.5667C97.8666 44.9703 97.9642 52.4006 98.1412 52.4615C98.2923 52.5134 100.297 52.5176 102.596 52.4709L106.775 52.3859L106.851 47.0878L106.927 41.7897L111.527 41.6033C116.668 41.395 118.619 40.9378 121.006 39.3815C125.843 36.2267 127.993 29.9631 126.741 22.6724C125.61 16.0787 121.91 11.9788 116.266 11.0642C115.27 10.9027 110.722 10.7696 106.16 10.7684L97.8666 10.7662V31.5667ZM260.163 12.9562C259.703 14.168 258.617 17.0714 257.748 19.4086C256.88 21.7454 254.675 27.6237 252.847 32.4716C251.019 37.3192 249.524 41.3673 249.524 41.467C249.524 41.5664 251.723 41.648 254.411 41.648C258.073 41.648 259.328 41.5594 259.415 41.2939C259.597 40.7431 265.349 24.3074 265.623 23.5575C265.824 23.0039 266.47 24.476 269.441 32.2696L273.017 41.648H277.718C280.475 41.648 282.42 41.5375 282.42 41.3812C282.42 41.2344 279.665 34.3177 276.298 26.011L270.178 10.9078L265.588 10.8302L260.999 10.7526L260.163 12.9562ZM130.205 14.8412V18.6637L139.288 18.7521C147.995 18.8371 148.389 18.8643 148.784 19.4074C149.045 19.7655 149.137 20.2857 149.034 20.8203C148.723 22.4341 148.556 22.4803 142.266 22.6798C136.113 22.8753 135.373 23.0203 133.333 24.4301C131.069 25.994 129.893 28.7236 129.88 32.4401C129.867 36.3298 131.452 39.2767 134.331 40.7131L135.92 41.5064L146.305 41.5959L156.689 41.6852V37.8419V33.9984L148.674 33.9942C140.103 33.9896 139.351 33.8808 139.173 32.6167C139.033 31.6245 139.341 30.6884 139.89 30.4354C140.16 30.3113 142.764 30.1271 145.678 30.0265C152.037 29.8067 153.505 29.3888 155.609 27.199C157.211 25.5322 157.862 23.6941 157.836 20.911C157.798 16.7805 156.118 13.5543 153.219 12.0471L151.573 11.1911L140.889 11.1047L130.205 11.0186V14.8412ZM299.791 18.4759C302.393 19.268 303.635 21.7363 303.629 26.1065C303.623 30.7762 302.387 33.1952 299.602 33.9876C295.921 35.0351 292.655 33.0238 291.879 29.2321C291.521 27.4801 291.672 23.7544 292.171 22.0369C293.059 18.9822 296.371 17.4344 299.791 18.4759ZM113.834 18.9994C116.145 19.6514 117.546 21.7632 117.848 25.0466C118.169 28.5368 116.947 31.6409 114.757 32.9025C113.743 33.4862 113.248 33.5593 110.272 33.5661L106.927 33.5734L106.906 26.6321C106.894 22.8143 106.934 19.4678 106.994 19.1949C107.09 18.7623 107.466 18.6994 109.943 18.7008C111.504 18.7017 113.255 18.836 113.834 18.9994ZM177.459 21.3992C177.612 21.4572 182.379 21.9669 188.052 22.5319C193.725 23.0968 198.555 23.6241 198.785 23.7034C199.199 23.8465 198.54 24.531 194.813 27.8319C194.085 28.4768 193.489 29.108 193.489 29.2349C193.489 29.3616 201.601 29.4653 211.516 29.4653C221.432 29.4653 229.478 29.3976 229.396 29.3151C229.259 29.1752 220.567 28.2932 209.97 27.3444C207.458 27.1194 205.351 26.8828 205.288 26.8185C205.225 26.7542 205.97 25.6342 206.945 24.3295C207.92 23.0249 208.811 21.7981 208.925 21.6032C209.091 21.3215 205.868 21.2535 193.156 21.2714C184.369 21.2836 177.305 21.3411 177.459 21.3992ZM339.361 55.1052C338.583 56.3251 338.584 56.3807 339.376 56.3807C339.956 56.3807 341.8 54.808 341.8 54.313C341.8 54.2037 341.392 54.1158 340.894 54.1175C340.168 54.1204 339.863 54.3167 339.361 55.1052ZM25.6624 59.7805V65.1636H26.7775H27.8926V63.5682V61.9729L28.9155 62.1417C30.1315 62.3423 30.3916 62.686 30.3974 64.1012C30.4016 65.1571 30.4089 65.1636 31.555 65.1636H32.7083L32.5616 63.3084C32.408 61.3643 31.9118 60.452 30.921 60.2922C30.4624 60.2183 30.5689 60.0009 31.6469 58.8107C32.3419 58.0435 32.9107 57.3743 32.9107 57.3233C32.9107 57.2723 32.3559 57.2306 31.6779 57.2306C30.5393 57.2306 30.347 57.3443 29.1689 58.7133L27.8926 60.1959V57.2967V54.3974H26.7775H25.6624V59.7805ZM64.4129 59.7805V65.1636H65.528H66.6432V63.6657C66.6432 62.2137 66.6683 62.1658 67.4569 62.1046C68.5589 62.0193 69.1522 62.7001 69.1522 64.0504C69.1522 65.1602 69.1555 65.1636 70.2673 65.1636H71.3824V63.7892C71.3824 61.7289 70.9191 60.6356 69.9637 60.4412L69.1661 60.2792L70.4477 58.7549L71.729 57.2306L70.5101 57.225C69.3892 57.2199 69.1865 57.3389 67.9763 58.7124L66.661 60.2055L66.6521 57.3015L66.6432 54.3974H65.528H64.4129V59.7805ZM233.997 55.0805L233.215 55.7636L233.126 60.4891L233.037 65.2149L236.105 65.1183C239.059 65.0256 239.205 64.9911 240.024 64.1932C240.492 63.7374 240.949 62.9611 241.04 62.4681C241.265 61.2484 240.554 59.6312 239.509 58.9852L238.66 58.4608L239.492 57.6511C240.163 56.9975 240.324 56.6056 240.324 55.6194V54.3974H237.552C235.024 54.3974 234.71 54.4578 233.997 55.0805ZM281.685 54.7289C280.66 55.2332 280.468 56.1863 280.468 60.7855V65.1636L283.186 65.1625C287.226 65.1611 288.274 64.3372 288.274 61.1645C288.274 58.4532 287.015 57.2306 284.222 57.2306C283.09 57.2306 282.684 57.1318 282.767 56.8765C282.845 56.6382 283.674 56.4954 285.3 56.4405L287.717 56.3586V55.378V54.3974L284.998 54.4167C283.504 54.4272 282.012 54.5677 281.685 54.7289ZM237.598 57.0216C237.272 57.374 236.623 57.8092 236.156 57.9885C235.401 58.2781 235.306 58.2565 235.306 57.7959C235.306 56.6487 235.611 56.3807 236.917 56.3807H238.191L237.598 57.0216ZM273.705 57.3394C272.311 57.8622 271.908 58.2353 271.499 59.3833C271.282 59.9933 270.972 60.3472 270.655 60.3472C270.233 60.3472 270.153 60.1004 270.153 58.7889V57.2306H268.891H267.629L267.706 61.1263L267.784 65.0219L268.969 65.1089L270.153 65.1962V63.6215C270.153 62.2947 270.232 62.0471 270.655 62.0471C270.977 62.0471 271.285 62.4092 271.516 63.0583C271.725 63.6439 272.247 64.2995 272.757 64.6157C273.971 65.3676 276.393 65.3549 277.627 64.5896C279.846 63.2149 279.876 59.355 277.68 57.7545C276.714 57.0499 274.965 56.8674 273.705 57.3394ZM0.850838 58.2098V59.1889L2.86894 59.2722C4.53076 59.3408 4.90375 59.4431 4.98042 59.8514C5.06238 60.2882 4.82263 60.3472 2.96204 60.3472H0.850838V61.1971V62.0471H2.9417C4.59208 62.0471 5.03255 62.1346 5.03255 62.4622C5.03255 63.1078 4.0978 63.4637 2.40253 63.4637C0.864221 63.4637 0.850838 63.4711 0.850838 64.3136V65.1636H2.95564C6.33976 65.1636 7.54158 64.1207 7.54158 61.1841C7.54158 58.3702 6.18336 57.2306 2.8299 57.2306H0.850838V58.2098ZM11.0576 57.4627C10.9798 57.5905 10.3336 59.2159 9.62128 61.075C8.909 62.9342 8.26167 64.6148 8.18278 64.8095C8.08074 65.0619 8.39883 65.1636 9.28954 65.1636H10.5399L11.4579 62.5758L12.3762 59.9876L13.374 62.5749L14.3717 65.1622L15.5797 65.163C16.2443 65.1633 16.7461 65.0545 16.6948 64.9214C16.6438 64.7882 15.912 63.0039 15.0687 60.956L13.5354 57.2329L12.367 57.2318C11.7244 57.2312 11.1351 57.3352 11.0576 57.4627ZM19.3898 57.5009C19.0831 57.6298 18.5186 58.0783 18.1353 58.4974C17.5297 59.1595 17.4383 59.5196 17.4383 61.2416C17.4383 63.1688 17.4673 63.2509 18.4796 64.1938C19.491 65.1358 19.5877 65.1636 21.8439 65.1636H24.167V64.3136C24.167 63.477 24.1438 63.4637 22.7025 63.4637C20.9376 63.4637 19.8079 63.0719 19.8079 62.4602C19.8079 62.0836 20.1363 62.0199 21.7926 62.0746C23.8773 62.1431 24.4817 61.8085 24.0998 60.7965C23.9657 60.4418 23.4918 60.3472 21.8486 60.3472C20.0168 60.3472 19.7781 60.2877 19.8598 59.8514C19.9354 59.4476 20.3399 59.3292 22.0343 59.2139C24.2439 59.0634 24.1946 59.1057 24.0206 57.514C23.9835 57.174 20.1929 57.1635 19.3898 57.5009ZM34.0258 61.179V65.1636H35.1409H36.256V62.1887V59.2139H37.3712H38.4863V62.1887V65.1636H39.6014H40.7165V62.1887V59.2139H41.6624C42.8537 59.2139 42.9468 59.4624 42.9468 62.637V65.1636H44.0859H45.225L45.1313 61.9125C44.9972 57.2632 45.1787 57.3981 38.8975 57.2833L34.0258 57.1941V61.179ZM46.0769 62.6846L46.1528 68.1385H47.2679H48.383L48.4672 66.651L48.5517 65.1636L50.0005 65.1625C51.6074 65.1613 53.0066 64.4777 53.5625 63.4218C54.0523 62.4919 53.9756 60.0599 53.4222 58.9725C52.754 57.659 51.5499 57.2306 48.5255 57.2306H46.0014L46.0769 62.6846ZM55.2131 60.369C55.2131 63.46 55.2254 63.5198 56.028 64.3355C56.8209 65.1412 56.919 65.1636 59.6522 65.1636H62.4614V61.1971V57.2306H61.3463H60.2312V60.3472V63.4637H59.1718C58.5892 63.4637 57.9619 63.3107 57.7779 63.1237C57.5633 62.9055 57.4434 61.789 57.4434 60.0072V57.2306H56.3283H55.2131V60.369ZM73.0551 58.2112V59.1918L75.4914 59.2737C77.5519 59.3428 77.9419 59.432 78.0208 59.8514C78.103 60.2885 77.8627 60.3472 75.9901 60.3472C74.1067 60.3472 73.7886 60.4259 73.182 61.0427C72.2556 61.9839 72.2366 63.6824 73.1427 64.5477C73.7292 65.1075 74.0847 65.1636 77.0456 65.1636H80.3034V62.0253C80.3034 58.9343 80.2912 58.8745 79.4886 58.0588C78.6957 57.253 78.5976 57.2306 75.8644 57.2306H73.0551V58.2112ZM87.6911 57.5009C85.1467 58.5705 84.8598 63.245 87.2507 64.6803C87.7514 64.9809 88.646 65.1636 89.6158 65.1636C90.7636 65.1636 91.1759 65.2679 91.1759 65.5583C91.1759 66.1371 90.5372 66.2969 88.2258 66.2969H86.1578V67.1469V67.9968H89.0976C91.8475 67.9968 92.0819 67.9518 92.7217 67.3013C93.3933 66.619 93.4061 66.5176 93.4061 61.9182V57.2306L90.8274 57.2485C89.4092 57.2584 87.9978 57.372 87.6911 57.5009ZM95.858 60.7081C95.1365 62.6132 94.4647 64.3952 94.3646 64.6678C94.2087 65.0933 94.3582 65.1636 95.4189 65.1636H96.655L97.4326 62.8934C97.8602 61.6448 98.313 60.5585 98.4387 60.4798C98.5644 60.4007 99.0732 61.4224 99.5694 62.75L100.472 65.1636H101.701C102.378 65.1636 102.889 65.0582 102.838 64.9293C102.787 64.8007 102.055 63.0186 101.212 60.9691L99.6787 57.2431L98.4242 57.2437L97.1697 57.2445L95.858 60.7081ZM104.836 57.4315C103.433 57.956 102.823 59.7057 103.547 61.1283C103.785 61.596 104.191 62.061 104.449 62.1618C104.878 62.3287 104.869 62.4015 104.355 62.9752C103.805 63.5892 103.163 64.6811 103.163 65.0032C103.163 65.0914 103.707 65.1636 104.371 65.1636C105.461 65.1636 105.645 65.0596 106.255 64.1012C106.686 63.4246 107.285 62.9217 107.905 62.7169L108.878 62.3947L108.963 63.7793L109.047 65.1636H110.147H111.248V61.1971V57.2306L108.251 57.253C106.603 57.2652 105.066 57.3457 104.836 57.4315ZM116.545 61.1971V65.1636H117.815H119.086L119.033 62.2596L118.98 59.3555H120.202H121.424L121.503 62.2596L121.583 65.1636H122.688H123.793V62.2021C123.793 57.6157 123.436 57.2306 119.18 57.2306H116.545V61.1971ZM125.187 62.7554V68.2801H126.302H127.417V66.7219V65.1636H129.094C130.615 65.1636 130.868 65.0732 131.812 64.1938C132.81 63.2642 132.854 63.1472 132.854 61.3813C132.854 59.9536 132.722 59.3587 132.269 58.7388C131.364 57.5004 130.583 57.2394 127.766 57.2349L125.187 57.2306V62.7554ZM135.555 57.8047C133.087 59.3337 133.292 63.5872 135.895 64.8678C137.351 65.5841 138.368 65.5914 139.874 64.8964C141.341 64.2193 141.914 63.1356 141.914 61.0362C141.914 59.5488 141.834 59.3496 140.832 58.3305C139.82 57.3023 139.643 57.2306 138.114 57.2318C136.965 57.2323 136.203 57.4032 135.555 57.8047ZM144.111 57.6565C143.146 58.1897 142.472 59.6981 142.472 61.3249C142.472 63.832 143.772 65.1636 146.221 65.1636H147.49V66.7219V68.2801H148.73H149.969L150.054 66.7927L150.138 65.3053L151.292 65.2393C151.927 65.203 152.774 65.0469 153.174 64.8922C155.437 64.0179 155.696 59.1918 153.562 57.6729C152.706 57.0635 145.208 57.0505 144.111 57.6565ZM157.579 57.8047C155.235 59.2567 155.389 63.53 157.831 64.8052C158.2 64.9979 159.474 65.1571 160.662 65.1594L162.823 65.1636V64.3136C162.823 63.4674 162.816 63.4637 161.212 63.4637C159.659 63.4637 158.362 62.9407 158.362 62.3143C158.362 62.1672 159.366 62.0471 160.592 62.0471H162.823V61.1971V60.3472H160.592C159.366 60.3472 158.362 60.2452 158.362 60.1205C158.362 59.5026 159.179 59.2139 160.927 59.2139H162.823V58.2223V57.2306L160.662 57.2318C158.987 57.2326 158.294 57.3613 157.579 57.8047ZM165.544 57.674C164.515 58.2415 163.908 59.5318 163.895 61.1767C163.873 64.0901 165.157 65.1636 168.663 65.1636H170.907V64.3465C170.907 63.5427 170.879 63.5277 169.111 63.4135C166.915 63.2713 166.166 62.7135 166.172 61.224C166.179 59.6015 166.472 59.3717 168.736 59.2139L170.768 59.0722L170.855 58.1514L170.943 57.2306L168.625 57.242C167.123 57.2493 166.039 57.4015 165.544 57.674ZM173.506 57.6876C171.288 58.7994 171.155 62.85 173.281 64.5494C173.93 65.0684 174.411 65.1636 176.381 65.1636H178.713V64.3465C178.713 63.5419 178.686 63.528 176.898 63.4121C174.719 63.2713 174.126 62.8044 174.126 61.2291C174.126 59.5442 174.564 59.2139 176.796 59.2139H178.713V58.2223V57.2306L176.553 57.2372C175.165 57.2411 174.075 57.4023 173.506 57.6876ZM180.107 60.2197C180.107 63.5056 180.467 64.6845 181.559 64.982C181.91 65.0778 183.358 65.1577 184.777 65.1596L187.355 65.1636V61.1971V57.2306H186.24H185.125V60.3472V63.4637H184.066C183.483 63.4637 182.856 63.3107 182.672 63.1237C182.457 62.9055 182.337 61.789 182.337 60.0072V57.2306H181.222H180.107V60.2197ZM190.475 57.8047C188.854 58.809 188.282 61.3158 189.219 63.3127C189.868 64.6953 191.679 65.5818 193.372 65.3461C195.786 65.0098 196.834 63.7051 196.834 61.0362C196.834 59.5488 196.754 59.3496 195.752 58.3305C194.74 57.3023 194.562 57.2306 193.034 57.2318C191.885 57.2323 191.123 57.4032 190.475 57.8047ZM197.531 61.1971V65.1636H198.716H199.9V63.747C199.9 62.3126 199.945 62.2596 201.155 62.2596C202.99 62.2596 202.967 62.2403 202.967 63.747V65.1636H204.222H205.476V61.1971V57.2306H204.222H202.967V58.7889V60.3472H201.434H199.9V58.7889V57.2306H198.716H197.531V61.1971ZM206.922 58.1514L207.009 59.0722L209.419 59.1535C211.542 59.2255 211.845 59.3011 211.972 59.791C212.105 60.3086 211.964 60.3472 209.93 60.3472C207.663 60.3472 207.24 60.5313 206.564 61.8156C206.139 62.6225 206.499 64.2156 207.222 64.7304C207.684 65.0596 208.619 65.1636 211.114 65.1636H214.397V62.6194C214.397 59.6788 213.893 58.0421 212.836 57.5525C212.453 57.3754 210.947 57.2306 209.488 57.2306H206.835L206.922 58.1514ZM216.849 60.69C216.128 62.6049 215.456 64.3952 215.356 64.6678C215.2 65.0925 215.348 65.1636 216.393 65.1636H217.613L218.406 62.8939C218.843 61.6456 219.294 60.5648 219.41 60.4925C219.525 60.42 220.03 61.4413 220.533 62.7622L221.446 65.1636H222.654C223.796 65.1636 223.848 65.1288 223.609 64.5261C223.469 64.1754 222.74 62.4225 221.989 60.6305L220.622 57.3723L219.391 57.2901L218.161 57.2077L216.849 60.69ZM226.071 57.7078C224.921 58.4331 224.314 59.7247 224.336 61.3994C224.371 63.9884 225.725 65.2959 228.372 65.2959C230.237 65.2959 231.257 64.7007 232.029 63.1602C232.981 61.2637 232.414 58.8096 230.792 57.8047C229.635 57.0873 227.135 57.036 226.071 57.7078ZM246.224 60.514C246.315 63.7082 246.339 63.8159 247.1 64.4805C247.818 65.1081 248.118 65.1636 250.794 65.1636H253.705V61.1971V57.2306H252.451H251.196V60.3472V63.4637H250.24C248.675 63.4637 248.408 62.9463 248.408 59.9021V57.2306H247.269H246.13L246.224 60.514ZM259.978 60.9662C259.211 63.0177 258.542 64.8015 258.491 64.9299C258.44 65.0585 258.956 65.1636 259.638 65.1636H260.877L261.792 62.5647L262.707 59.9658L263.702 62.5647L264.698 65.1636H265.916C266.585 65.1636 267.091 65.0593 267.04 64.9316C266.989 64.8041 266.257 63.0203 265.414 60.9676L263.881 57.2352L262.626 57.2357L261.372 57.2363L259.978 60.9662ZM289.837 57.6789C289.582 58.3551 289.647 61.7538 289.94 63.0387C290.359 64.8777 290.946 65.1636 294.299 65.1636H297.195V61.1971V57.2306H296.08H294.965V60.3472V63.4637H294.012C292.202 63.4637 292.177 63.4184 292.177 60.1752V57.2306H291.092C290.359 57.2306 289.952 57.3763 289.837 57.6789ZM298.868 61.179V65.1636H300.122H301.377V62.1887V59.2139H302.353H303.328V62.1887V65.1636H304.443H305.559V62.1887V59.2139H306.504C307.696 59.2139 307.789 59.4624 307.789 62.637V65.1636H308.904H310.019V62.063C310.019 59.1946 309.969 58.9025 309.347 58.1673L308.675 57.3723L303.771 57.2833L298.868 57.1941V61.179ZM313.202 57.5052C312.883 57.6364 312.287 58.148 311.878 58.6421C311.259 59.3893 311.136 59.8114 311.144 61.1481C311.162 64.1264 312.325 65.1588 315.664 65.1616L317.825 65.1636V64.3136C317.825 63.4711 317.811 63.4637 316.273 63.4637C314.578 63.4637 313.643 63.1078 313.643 62.4622C313.643 62.1346 314.084 62.0471 315.734 62.0471H317.825V61.1971V60.3472H315.714C313.853 60.3472 313.613 60.2882 313.695 59.8514C313.772 59.4431 314.145 59.3408 315.807 59.2722L317.825 59.1889V58.2098V57.2306L315.804 57.2485C314.692 57.2584 313.521 57.374 313.202 57.5052ZM320.12 60.9943C319.317 63.0784 318.661 64.869 318.661 64.9735C318.661 65.078 319.2 65.1636 319.857 65.1636H321.054L321.875 62.7554C322.327 61.4309 322.771 60.3472 322.861 60.3472C322.952 60.3472 323.431 61.4309 323.926 62.7554L324.826 65.1636H326.052H327.279L326.414 63.1095C325.938 61.9797 325.213 60.2268 324.802 59.2139L324.056 57.3723L322.817 57.2887L321.578 57.2049L320.12 60.9943ZM329.367 57.7681C328.259 58.4549 327.471 60.3619 327.725 61.7408C328.21 64.3686 329.307 65.1636 332.447 65.1636H334.552V64.3136V63.4637H332.879C331.516 63.4637 331.09 63.3455 330.579 62.8262L329.952 62.1887L332.252 62.1066L334.552 62.0241V61.1858V60.3472H332.312C330.158 60.3472 330.083 60.3253 330.37 59.7805C330.625 59.2972 330.954 59.2139 332.61 59.2139H334.552V58.2223V57.2306L332.391 57.2318C330.765 57.2326 330.017 57.3652 329.367 57.7681ZM335.991 60.4667C336.077 63.4337 336.141 63.7637 336.761 64.4332C337.406 65.131 337.572 65.1636 340.455 65.1636H343.473V61.1971V57.2306H342.218H340.964V60.3472V63.4637H339.904C339.322 63.4637 338.694 63.3107 338.51 63.1237C338.296 62.9055 338.176 61.789 338.176 60.0072V57.2306H337.037H335.898L335.991 60.4667ZM108.967 59.8514C109.054 60.6257 109.044 60.6305 107.364 60.6305C105.759 60.6305 105.673 60.5954 105.673 59.9429C105.673 59.1595 106.123 58.9623 107.763 59.0277C108.76 59.0674 108.888 59.1552 108.967 59.8514ZM139.126 59.4972C139.807 60.1894 139.872 61.9315 139.25 62.8339C138.789 63.5028 137.772 63.6569 136.91 63.188C135.925 62.6523 135.977 59.8038 136.983 59.1533C137.584 58.7648 138.56 58.9215 139.126 59.4972ZM147.49 61.1971C147.49 63.4368 147.481 63.4637 146.78 63.4637C145.788 63.4637 144.702 62.2794 144.702 61.1971C144.702 60.1148 145.788 58.9306 146.78 58.9306C147.481 58.9306 147.49 58.9575 147.49 61.1971ZM151.759 59.2564C152.581 59.6958 152.777 60.0468 152.782 61.088C152.788 62.3188 151.84 63.4637 150.815 63.4637H149.999V61.1971C149.999 59.0955 150.04 58.9306 150.575 58.9306C150.891 58.9306 151.424 59.077 151.759 59.2564ZM194.046 59.4972C194.75 60.2129 194.806 62.2004 194.142 62.9455C193.672 63.4733 192.501 63.6277 191.903 63.241C191.364 62.8928 190.943 61.4428 191.13 60.5784C191.483 58.9464 192.964 58.3974 194.046 59.4972ZM229.585 59.4913C230.16 60.1367 230.251 61.9071 229.758 62.8435C229.358 63.6042 227.927 63.6881 227.173 62.9948C226.506 62.3806 226.476 60.178 227.125 59.4488C227.731 58.7674 228.96 58.7886 229.585 59.4913ZM276.593 59.5508C277.446 61.1696 276.669 63.4637 275.268 63.4637C273.72 63.4637 272.827 60.7212 273.96 59.4488C274.627 58.6994 276.177 58.7594 276.593 59.5508ZM285.695 59.7188C285.887 59.9681 286.044 60.6577 286.044 61.2512C286.044 62.705 285.279 63.4637 283.814 63.4637H282.698V61.3861C282.698 60.2432 282.755 59.2513 282.823 59.1813C283.118 58.8818 285.377 59.3046 285.695 59.7188ZM51.151 59.659C51.6799 60.1967 51.7278 62.0292 51.2308 62.72C51.0328 62.9954 50.347 63.2897 49.6975 63.3781L48.5224 63.5382V61.3762V59.2139H49.6177C50.2416 59.2139 50.9012 59.4054 51.151 59.659ZM91.1759 61.3388V63.4637H90.3526C89.1932 63.4637 88.1843 62.933 87.9972 62.225C87.4901 60.3041 88.1927 59.2139 89.9373 59.2139H91.1759V61.3388ZM130.234 59.6746C130.441 59.9281 130.611 60.643 130.611 61.2631C130.611 62.6384 129.767 63.4637 128.362 63.4637H127.417V61.3388V59.2139H128.638C129.425 59.2139 129.992 59.3776 130.234 59.6746ZM238.233 60.6305C238.463 60.8243 238.651 61.417 238.651 61.9471C238.651 63.0353 237.976 63.4637 236.263 63.4637H235.306V61.7269V59.9902L236.56 60.1338C237.25 60.2129 238.003 60.4364 238.233 60.6305ZM78.0732 62.7554C78.0732 63.4039 77.9695 63.4637 76.8415 63.4637C75.364 63.4637 74.7278 63.2486 74.7278 62.7486C74.7278 62.248 75.1797 62.0961 76.749 62.0695C77.9815 62.0485 78.0732 62.0961 78.0732 62.7554ZM212.117 62.8262C212.2 63.4212 212.103 63.4637 210.67 63.4637C209.099 63.4637 208.648 63.1985 208.933 62.4435C209.054 62.1224 209.456 62.0383 210.561 62.1029C211.839 62.1777 212.039 62.2706 212.117 62.8262Z" fill="white"/>
<mask id="mask0_1124_1001" style="mask-type:alpha" maskUnits="userSpaceOnUse" x="0" y="0" width="345" height="53">
<path fill-rule="evenodd" clip-rule="evenodd" d="M0.0144958 4.21552V8.43132L7.90261 8.5455L15.7907 8.65968L17.3954 9.45751C19.6181 10.5627 20.3842 11.8399 21.0268 15.5118L21.1879 16.4326H10.594H0L0.0769424 20.7532L0.153885 25.0738L10.5385 25.1322C16.2501 25.1642 20.9342 25.2917 20.9476 25.4155C21.1271 27.0661 19.6948 30.1382 18.2903 31.1153C16.3586 32.4591 15.1275 32.6475 7.3325 32.794L0.0144958 32.9314V37.1481V41.3647H7.6609C15.7043 41.3647 18.6042 41.1151 21.3181 40.1895C28.1463 37.8606 32.2224 29.5435 31.7111 18.9824C31.408 12.7239 29.5399 7.85306 26.1059 4.36879C22.2858 0.492976 20.2992 0 8.4992 0H0.0144958V4.21552ZM226.959 0.307968C221.447 1.03298 217.783 3.43044 215.674 7.69186C214.412 10.2409 214.03 13.18 214.002 20.5407L213.979 26.4904L217.603 26.8236C223.894 27.4021 223.453 27.4115 223.492 26.6972C223.512 26.3499 223.543 25.8742 223.562 25.6405C223.592 25.2775 224.422 25.2163 229.242 25.2223C235.474 25.2297 236.739 25.4104 237.75 26.4374C239.215 27.9263 238.725 31.176 236.861 32.3308C236.089 32.8093 235.377 32.8631 229.816 32.864L223.631 32.8651L223.544 31.8027L223.457 30.7402H218.718H213.979L213.903 36.1941L213.828 41.648H226.48C233.813 41.648 239.755 41.5279 240.614 41.3625C245.03 40.5114 247.78 37.7258 248.714 33.1561C249.203 30.7663 248.9 25.7113 248.149 23.7289C247.335 21.5796 245.209 19.2275 243.21 18.2668C240.494 16.961 238.522 16.687 230.599 16.5153L223.244 16.3555L223.409 14.5644C223.658 11.8598 224.416 10.5931 226.333 9.67991L227.918 8.92458L236.909 8.82995L245.899 8.73532V4.36766V0L237.327 0.0359812C232.612 0.0558136 227.946 0.178208 226.959 0.307968ZM316.431 20.824V41.648H320.891H325.352V35.8043V29.9605L328.488 30.0999C331.865 30.2498 332.433 30.3844 332.784 31.1162C332.909 31.3768 333.076 33.8213 333.154 36.5483L333.297 41.5064L337.861 41.5843L342.424 41.6625L342.283 35.3513C342.126 28.3292 341.811 26.612 340.349 24.8101C339.304 23.5209 338.196 22.9248 336.119 22.5333L334.481 22.2245L339.674 16.6538C342.53 13.5897 344.867 11.0118 344.867 10.9245C344.867 10.8376 342.515 10.7755 339.639 10.7871L334.412 10.8078L329.952 15.9427L325.491 21.0779L325.418 10.5389L325.345 0H320.888H316.431V20.824ZM170.748 10.9078C167.886 11.6921 166.178 12.6806 164.188 14.7029C161.175 17.7647 160.035 20.8889 160.035 26.0796C160.035 34.2095 163.557 39.5101 170.21 41.3948C172.376 42.0081 178.46 41.9234 180.386 41.2534C185.118 39.6064 187.849 37.0279 189.492 32.6555C190.065 31.1298 190.24 30.0631 190.355 27.4112C190.435 25.5555 190.389 24.0785 190.251 24.0737C190.115 24.0692 188.247 23.8805 186.101 23.6547C183.954 23.4289 181.947 23.241 181.64 23.2373C181.118 23.2314 181.089 23.3869 181.175 25.7107C181.349 30.3878 179.99 33.1986 177.168 34.0018C174.393 34.7914 171.652 33.7638 170.16 31.3749C169.49 30.3011 169.397 29.8401 169.289 27.0336C169.138 23.1209 169.602 21.2159 171.067 19.727C172.997 17.765 176.737 17.5681 178.96 19.3111C179.547 19.7712 180.192 19.8324 184.466 19.8324C187.611 19.8324 189.307 19.7298 189.307 19.5397C189.307 18.7782 187.696 16.1592 186.336 14.7105C184.618 12.8794 182.423 11.5858 179.927 10.9316C177.809 10.3766 172.733 10.3636 170.748 10.9078ZM293.013 10.9342C287.859 12.3256 283.918 16.5193 282.821 21.7811C281.969 25.862 282.531 31.1295 284.184 34.5588C285.928 38.1799 289.696 40.9361 293.883 41.6537C296.77 42.1487 301.043 41.8818 303.468 41.0553C308.219 39.4364 311.47 35.7286 312.558 30.6887C313.05 28.4043 312.983 23.7833 312.423 21.4198C311.156 16.0776 307.496 12.2559 302.364 10.9163C300.242 10.363 295.093 10.3726 293.013 10.9342ZM35.6985 26.2071V41.648H40.159H44.6195V35.987V30.326L45.2604 30.1625C45.613 30.0727 48.0281 30.0384 50.6269 30.0863L55.3525 30.1736L55.4281 35.9108L55.5034 41.648H60.0977H64.6917V26.2071V10.7662H60.0918H55.4919V16.5742V22.3823H50.0557H44.6195V16.5742V10.7662H40.159H35.6985V26.2071ZM78.4102 11.1982C75.7643 11.7821 73.7671 12.8367 72.1441 14.5068C69.4226 17.3069 68.0329 21.166 68.0418 25.8983C68.0566 33.7525 71.3838 38.8854 77.7944 40.944C79.0247 41.3389 80.7461 41.4639 86.5063 41.5758L93.6849 41.7152V37.7153V33.7151H87.7408C80.9279 33.7151 79.7464 33.4808 78.7004 31.9228C77.3932 29.9755 77.1794 30.0319 85.8791 30.0319H93.6849L93.6852 26.1363V22.2406L85.8793 22.32L78.0732 22.3996L78.0743 21.7533C78.076 20.6019 79.0709 19.3255 80.2192 19.0014C80.8161 18.8329 83.9886 18.7017 87.482 18.7008L93.6849 18.6991V14.7326V10.7662L86.9245 10.7885C82.3288 10.8041 79.6023 10.935 78.4102 11.1982ZM97.8666 31.5667C97.8666 44.9703 97.9642 52.4006 98.1412 52.4615C98.2923 52.5134 100.297 52.5176 102.596 52.4709L106.775 52.3859L106.851 47.0878L106.927 41.7897L111.527 41.6033C116.668 41.395 118.619 40.9378 121.006 39.3815C125.843 36.2267 127.993 29.9631 126.741 22.6724C125.61 16.0787 121.91 11.9788 116.266 11.0642C115.27 10.9027 110.722 10.7696 106.16 10.7684L97.8666 10.7662V31.5667ZM260.163 12.9562C259.703 14.168 258.617 17.0714 257.748 19.4086C256.88 21.7454 254.675 27.6237 252.847 32.4716C251.019 37.3192 249.524 41.3673 249.524 41.467C249.524 41.5664 251.723 41.648 254.411 41.648C258.073 41.648 259.328 41.5594 259.415 41.2939C259.597 40.7431 265.349 24.3074 265.623 23.5575C265.824 23.0039 266.47 24.476 269.441 32.2696L273.017 41.648H277.718C280.475 41.648 282.42 41.5375 282.42 41.3812C282.42 41.2344 279.665 34.3177 276.298 26.011L270.178 10.9078L265.588 10.8302L260.999 10.7526L260.163 12.9562ZM130.205 14.8412V18.6637L139.288 18.7521C147.995 18.8371 148.389 18.8643 148.784 19.4074C149.045 19.7655 149.137 20.2857 149.034 20.8203C148.723 22.4341 148.556 22.4803 142.266 22.6798C136.113 22.8753 135.373 23.0203 133.333 24.4301C131.069 25.994 129.893 28.7236 129.88 32.4401C129.867 36.3298 131.452 39.2767 134.331 40.7131L135.92 41.5064L146.305 41.5959L156.689 41.6852V37.8419V33.9984L148.674 33.9942C140.103 33.9896 139.351 33.8808 139.173 32.6167C139.033 31.6245 139.341 30.6884 139.89 30.4354C140.16 30.3113 142.764 30.1271 145.678 30.0265C152.037 29.8067 153.505 29.3888 155.609 27.199C157.211 25.5322 157.862 23.6941 157.836 20.911C157.798 16.7805 156.118 13.5543 153.219 12.0471L151.573 11.1911L140.889 11.1047L130.205 11.0186V14.8412ZM299.791 18.4759C302.393 19.268 303.635 21.7363 303.629 26.1065C303.623 30.7762 302.387 33.1952 299.602 33.9876C295.921 35.0351 292.655 33.0238 291.879 29.2321C291.521 27.4801 291.672 23.7544 292.171 22.0369C293.059 18.9822 296.371 17.4344 299.791 18.4759ZM113.834 18.9994C116.145 19.6514 117.546 21.7632 117.848 25.0466C118.169 28.5368 116.947 31.6409 114.757 32.9025C113.743 33.4862 113.248 33.5593 110.272 33.5661L106.927 33.5734L106.906 26.6321C106.894 22.8143 106.934 19.4678 106.994 19.1949C107.09 18.7623 107.466 18.6994 109.943 18.7008C111.504 18.7017 113.255 18.836 113.834 18.9994ZM177.459 21.3992C177.612 21.4572 182.379 21.9669 188.052 22.5319C193.725 23.0968 198.555 23.6241 198.785 23.7034C199.199 23.8465 198.54 24.531 194.813 27.8319C194.085 28.4768 193.489 29.108 193.489 29.2349C193.489 29.3616 201.601 29.4653 211.516 29.4653C221.432 29.4653 229.478 29.3976 229.396 29.3151C229.259 29.1752 220.567 28.2932 209.97 27.3444C207.458 27.1194 205.351 26.8828 205.288 26.8185C205.225 26.7542 205.97 25.6342 206.945 24.3295C207.92 23.0249 208.811 21.7981 208.925 21.6032C209.091 21.3215 205.868 21.2535 193.156 21.2714C184.369 21.2836 177.305 21.3411 177.459 21.3992Z" fill="black"/>
</mask>
<g mask="url(#mask0_1124_1001)">
<path fill-rule="evenodd" clip-rule="evenodd" d="M0.0144958 4.21552V8.43132L7.90261 8.5455L15.7907 8.65968L17.3954 9.45751C19.6181 10.5627 20.3842 11.8399 21.0268 15.5118L21.1879 16.4326H10.594H0L0.0769424 20.7532L0.153885 25.0738L10.5385 25.1322C16.2501 25.1642 20.9342 25.2917 20.9476 25.4155C21.1271 27.0661 19.6948 30.1382 18.2903 31.1153C16.3586 32.4591 15.1275 32.6475 7.3325 32.794L0.0144958 32.9314V37.1481V41.3647H7.6609C15.7043 41.3647 18.6042 41.1151 21.3181 40.1895C28.1463 37.8606 32.2224 29.5435 31.7111 18.9824C31.408 12.7239 29.5399 7.85306 26.1059 4.36879C22.2858 0.492976 20.2992 0 8.4992 0H0.0144958V4.21552ZM226.959 0.307968C221.447 1.03298 217.783 3.43044 215.674 7.69186C214.412 10.2409 214.03 13.18 214.002 20.5407L213.979 26.4904L217.603 26.8236C223.894 27.4021 223.453 27.4115 223.492 26.6972C223.512 26.3499 223.543 25.8742 223.562 25.6405C223.592 25.2775 224.422 25.2163 229.242 25.2223C235.474 25.2297 236.739 25.4104 237.75 26.4374C239.215 27.9263 238.725 31.176 236.861 32.3308C236.089 32.8093 235.377 32.8631 229.816 32.864L223.631 32.8651L223.544 31.8027L223.457 30.7402H218.718H213.979L213.903 36.1941L213.828 41.648H226.48C233.813 41.648 239.755 41.5279 240.614 41.3625C245.03 40.5114 247.78 37.7258 248.714 33.1561C249.203 30.7663 248.9 25.7113 248.149 23.7289C247.335 21.5796 245.209 19.2275 243.21 18.2668C240.494 16.961 238.522 16.687 230.599 16.5153L223.244 16.3555L223.409 14.5644C223.658 11.8598 224.416 10.5931 226.333 9.67991L227.918 8.92458L236.909 8.82995L245.899 8.73532V4.36766V0L237.327 0.0359812C232.612 0.0558136 227.946 0.178208 226.959 0.307968ZM316.431 20.824V41.648H320.891H325.352V35.8043V29.9605L328.488 30.0999C331.865 30.2498 332.433 30.3844 332.784 31.1162C332.909 31.3768 333.076 33.8213 333.154 36.5483L333.297 41.5064L337.861 41.5843L342.424 41.6625L342.283 35.3513C342.126 28.3292 341.811 26.612 340.349 24.8101C339.304 23.5209 338.196 22.9248 336.119 22.5333L334.481 22.2245L339.674 16.6538C342.53 13.5897 344.867 11.0118 344.867 10.9245C344.867 10.8376 342.515 10.7755 339.639 10.7871L334.412 10.8078L329.952 15.9427L325.491 21.0779L325.418 10.5389L325.345 0H320.888H316.431V20.824ZM170.748 10.9078C167.886 11.6921 166.178 12.6806 164.188 14.7029C161.175 17.7647 160.035 20.8889 160.035 26.0796C160.035 34.2095 163.557 39.5101 170.21 41.3948C172.376 42.0081 178.46 41.9234 180.386 41.2534C185.118 39.6064 187.849 37.0279 189.492 32.6555C190.065 31.1298 190.24 30.0631 190.355 27.4112C190.435 25.5555 190.389 24.0785 190.251 24.0737C190.115 24.0692 188.247 23.8805 186.101 23.6547C183.954 23.4289 181.947 23.241 181.64 23.2373C181.118 23.2314 181.089 23.3869 181.175 25.7107C181.349 30.3878 179.99 33.1986 177.168 34.0018C174.393 34.7914 171.652 33.7638 170.16 31.3749C169.49 30.3011 169.397 29.8401 169.289 27.0336C169.138 23.1209 169.602 21.2159 171.067 19.727C172.997 17.765 176.737 17.5681 178.96 19.3111C179.547 19.7712 180.192 19.8324 184.466 19.8324C187.611 19.8324 189.307 19.7298 189.307 19.5397C189.307 18.7782 187.696 16.1592 186.336 14.7105C184.618 12.8794 182.423 11.5858 179.927 10.9316C177.809 10.3766 172.733 10.3636 170.748 10.9078ZM293.013 10.9342C287.859 12.3256 283.918 16.5193 282.821 21.7811C281.969 25.862 282.531 31.1295 284.184 34.5588C285.928 38.1799 289.696 40.9361 293.883 41.6537C296.77 42.1487 301.043 41.8818 303.468 41.0553C308.219 39.4364 311.47 35.7286 312.558 30.6887C313.05 28.4043 312.983 23.7833 312.423 21.4198C311.156 16.0776 307.496 12.2559 302.364 10.9163C300.242 10.363 295.093 10.3726 293.013 10.9342ZM35.6985 26.2071V41.648H40.159H44.6195V35.987V30.326L45.2604 30.1625C45.613 30.0727 48.0281 30.0384 50.6269 30.0863L55.3525 30.1736L55.4281 35.9108L55.5034 41.648H60.0977H64.6917V26.2071V10.7662H60.0918H55.4919V16.5742V22.3823H50.0557H44.6195V16.5742V10.7662H40.159H35.6985V26.2071ZM78.4102 11.1982C75.7643 11.7821 73.7671 12.8367 72.1441 14.5068C69.4226 17.3069 68.0329 21.166 68.0418 25.8983C68.0566 33.7525 71.3838 38.8854 77.7944 40.944C79.0247 41.3389 80.7461 41.4639 86.5063 41.5758L93.6849 41.7152V37.7153V33.7151H87.7408C80.9279 33.7151 79.7464 33.4808 78.7004 31.9228C77.3932 29.9755 77.1794 30.0319 85.8791 30.0319H93.6849L93.6852 26.1363V22.2406L85.8793 22.32L78.0732 22.3996L78.0743 21.7533C78.076 20.6019 79.0709 19.3255 80.2192 19.0014C80.8161 18.8329 83.9886 18.7017 87.482 18.7008L93.6849 18.6991V14.7326V10.7662L86.9245 10.7885C82.3288 10.8041 79.6023 10.935 78.4102 11.1982ZM97.8666 31.5667C97.8666 44.9703 97.9642 52.4006 98.1412 52.4615C98.2923 52.5134 100.297 52.5176 102.596 52.4709L106.775 52.3859L106.851 47.0878L106.927 41.7897L111.527 41.6033C116.668 41.395 118.619 40.9378 121.006 39.3815C125.843 36.2267 127.993 29.9631 126.741 22.6724C125.61 16.0787 121.91 11.9788 116.266 11.0642C115.27 10.9027 110.722 10.7696 106.16 10.7684L97.8666 10.7662V31.5667ZM260.163 12.9562C259.703 14.168 258.617 17.0714 257.748 19.4086C256.88 21.7454 254.675 27.6237 252.847 32.4716C251.019 37.3192 249.524 41.3673 249.524 41.467C249.524 41.5664 251.723 41.648 254.411 41.648C258.073 41.648 259.328 41.5594 259.415 41.2939C259.597 40.7431 265.349 24.3074 265.623 23.5575C265.824 23.0039 266.47 24.476 269.441 32.2696L273.017 41.648H277.718C280.475 41.648 282.42 41.5375 282.42 41.3812C282.42 41.2344 279.665 34.3177 276.298 26.011L270.178 10.9078L265.588 10.8302L260.999 10.7526L260.163 12.9562ZM130.205 14.8412V18.6637L139.288 18.7521C147.995 18.8371 148.389 18.8643 148.784 19.4074C149.045 19.7655 149.137 20.2857 149.034 20.8203C148.723 22.4341 148.556 22.4803 142.266 22.6798C136.113 22.8753 135.373 23.0203 133.333 24.4301C131.069 25.994 129.893 28.7236 129.88 32.4401C129.867 36.3298 131.452 39.2767 134.331 40.7131L135.92 41.5064L146.305 41.5959L156.689 41.6852V37.8419V33.9984L148.674 33.9942C140.103 33.9896 139.351 33.8808 139.173 32.6167C139.033 31.6245 139.341 30.6884 139.89 30.4354C140.16 30.3113 142.764 30.1271 145.678 30.0265C152.037 29.8067 153.505 29.3888 155.609 27.199C157.211 25.5322 157.862 23.6941 157.836 20.911C157.798 16.7805 156.118 13.5543 153.219 12.0471L151.573 11.1911L140.889 11.1047L130.205 11.0186V14.8412ZM299.791 18.4759C302.393 19.268 303.635 21.7363 303.629 26.1065C303.623 30.7762 302.387 33.1952 299.602 33.9876C295.921 35.0351 292.655 33.0238 291.879 29.2321C291.521 27.4801 291.672 23.7544 292.171 22.0369C293.059 18.9822 296.371 17.4344 299.791 18.4759ZM113.834 18.9994C116.145 19.6514 117.546 21.7632 117.848 25.0466C118.169 28.5368 116.947 31.6409 114.757 32.9025C113.743 33.4862 113.248 33.5593 110.272 33.5661L106.927 33.5734L106.906 26.6321C106.894 22.8143 106.934 19.4678 106.994 19.1949C107.09 18.7623 107.466 18.6994 109.943 18.7008C111.504 18.7017 113.255 18.836 113.834 18.9994ZM177.459 21.3992C177.612 21.4572 182.379 21.9669 188.052 22.5319C193.725 23.0968 198.555 23.6241 198.785 23.7034C199.199 23.8465 198.54 24.531 194.813 27.8319C194.085 28.4768 193.489 29.108 193.489 29.2349C193.489 29.3616 201.601 29.4653 211.516 29.4653C221.432 29.4653 229.478 29.3976 229.396 29.3151C229.259 29.1752 220.567 28.2932 209.97 27.3444C207.458 27.1194 205.351 26.8828 205.288 26.8185C205.225 26.7542 205.97 25.6342 206.945 24.3295C207.92 23.0249 208.811 21.7981 208.925 21.6032C209.091 21.3215 205.868 21.2535 193.156 21.2714C184.369 21.2836 177.305 21.3411 177.459 21.3992Z" fill="black"/>
<path d="M0 -25H191L190.5 20L183 20.4865L176.5 19.1081L177.5 20.4865L178 22.5L190.5 23.5L191 26H0V-25Z" fill="url(#paint0_linear_1124_1001)"/>
<rect y="26" width="191" height="27" fill="#F37E15"/>
<path d="M176 21L213 20V31L192.5 30L196 25L178.5 22L176 21Z" fill="#F37E15"/>
<rect x="213" y="25" width="131" height="28" fill="#B3B3B3"/>
<path d="M213 27L229.5 28L230 30H213V27Z" fill="#F37E15"/>
<rect x="213" y="-2" width="131" height="28" fill="url(#paint1_linear_1124_1001)"/>
</g>
<defs>
<linearGradient id="paint0_linear_1124_1001" x1="95.5" y1="-25" x2="95.5" y2="26" gradientUnits="userSpaceOnUse">
<stop stop-color="#FE6404" stop-opacity="0.29"/>
<stop offset="1" stop-color="#FCA56E"/>
</linearGradient>
<linearGradient id="paint1_linear_1124_1001" x1="278.5" y1="-2" x2="278.5" y2="26" gradientUnits="userSpaceOnUse">
<stop stop-color="#BDBDBD" stop-opacity="0.21"/>
<stop offset="0.755208" stop-color="#BEBEBE" stop-opacity="0.888906"/>
<stop offset="1" stop-color="#BEBEBE"/>
</linearGradient>
</defs>
</svg>
